solid OpenSCAD_Model
  facet normal -1 0 0
    outer loop
      vertex 0 0 0
      vertex 0 0 5.5
      vertex 0 78.5 0
    endloop
  endfacet
  facet normal -1 0 0
    outer loop
      vertex 0 78.5 0
      vertex 0 0 5.5
      vertex 0 78.5 5.5
    endloop
  endfacet
  facet normal 0 -1 0
    outer loop
      vertex 0 0 5.5
      vertex 0 0 0
      vertex 9 0 0
    endloop
  endfacet
  facet normal 0 -1 0
    outer loop
      vertex 9 0 5.5
      vertex 0 0 5.5
      vertex 9 0 0
    endloop
  endfacet
  facet normal 0 0 -1
    outer loop
      vertex 71 75.5 0
      vertex 0 78.5 0
      vertex 74 78.5 0
    endloop
  endfacet
  facet normal 0 0 -1
    outer loop
      vertex 71 2 0
      vertex 74 78.5 0
      vertex 74 0 0
    endloop
  endfacet
  facet normal 0 0 -1
    outer loop
      vertex 71 2 0
      vertex 74 0 0
      vertex 67 2 0
    endloop
  endfacet
  facet normal 0 0 -1
    outer loop
      vertex 65 0 0
      vertex 67 2.5 0
      vertex 67 2 0
    endloop
  endfacet
  facet normal 0 0 -1
    outer loop
      vertex 65 0 0
      vertex 67 2 0
      vertex 74 0 0
    endloop
  endfacet
  facet normal 0 0 -1
    outer loop
      vertex 71 75.5 0
      vertex 74 78.5 0
      vertex 71 2 0
    endloop
  endfacet
  facet normal 0 0 -1
    outer loop
      vertex 3 75.5 0
      vertex 0 78.5 0
      vertex 71 75.5 0
    endloop
  endfacet
  facet normal 0 0 -1
    outer loop
      vertex 3 2 0
      vertex 0 78.5 0
      vertex 3 75.5 0
    endloop
  endfacet
  facet normal 0 0 -1
    outer loop
      vertex 0 0 0
      vertex 0 78.5 0
      vertex 3 2 0
    endloop
  endfacet
  facet normal 0 0 -1
    outer loop
      vertex 0 0 0
      vertex 3 2 0
      vertex 9 0 0
    endloop
  endfacet
  facet normal 0 0 -1
    outer loop
      vertex 9 2.5 0
      vertex 9 0 0
      vertex 7 2.5 0
    endloop
  endfacet
  facet normal 0 0 -1
    outer loop
      vertex 3 2 0
      vertex 7 2 0
      vertex 9 0 0
    endloop
  endfacet
  facet normal 0 0 -1
    outer loop
      vertex 7 2 0
      vertex 7 2.5 0
      vertex 9 0 0
    endloop
  endfacet
  facet normal 0 0 -1
    outer loop
      vertex 67 2.5 0
      vertex 65 0 0
      vertex 65 2.5 0
    endloop
  endfacet
  facet normal 0 1 0
    outer loop
      vertex 0 78.5 0
      vertex 0 78.5 5.5
      vertex 74 78.5 0
    endloop
  endfacet
  facet normal 0 1 0
    outer loop
      vertex 74 78.5 0
      vertex 0 78.5 5.5
      vertex 74 78.5 5.5
    endloop
  endfacet
  facet normal 0 0 1
    outer loop
      vertex 7 2 5.5
      vertex 0 0 5.5
      vertex 9 0 5.5
    endloop
  endfacet
  facet normal 0 0 1
    outer loop
      vertex 7 2 5.5
      vertex 3 2 5.5
      vertex 0 0 5.5
    endloop
  endfacet
  facet normal 0 0 1
    outer loop
      vertex 7 2.5 5.5
      vertex 7 2 5.5
      vertex 9 0 5.5
    endloop
  endfacet
  facet normal 0 0 1
    outer loop
      vertex 67 2 5.5
      vertex 65 0 5.5
      vertex 71 2 5.5
    endloop
  endfacet
  facet normal 0 0 1
    outer loop
      vertex 0 78.5 5.5
      vertex 0 0 5.5
      vertex 3 2 5.5
    endloop
  endfacet
  facet normal 0 0 1
    outer loop
      vertex 71 75.5 5.5
      vertex 0 78.5 5.5
      vertex 3 75.5 5.5
    endloop
  endfacet
  facet normal 0 0 1
    outer loop
      vertex 74 78.5 5.5
      vertex 0 78.5 5.5
      vertex 71 75.5 5.5
    endloop
  endfacet
  facet normal 0 0 1
    outer loop
      vertex 74 0 5.5
      vertex 71 75.5 5.5
      vertex 71 2 5.5
    endloop
  endfacet
  facet normal 0 0 1
    outer loop
      vertex 74 0 5.5
      vertex 71 2 5.5
      vertex 65 0 5.5
    endloop
  endfacet
  facet normal 0 0 1
    outer loop
      vertex 74 78.5 5.5
      vertex 71 75.5 5.5
      vertex 74 0 5.5
    endloop
  endfacet
  facet normal 0 0 1
    outer loop
      vertex 65 2.5 5.5
      vertex 67 2 5.5
      vertex 67 2.5 5.5
    endloop
  endfacet
  facet normal 0 0 1
    outer loop
      vertex 9 2.5 5.5
      vertex 7 2.5 5.5
      vertex 9 0 5.5
    endloop
  endfacet
  facet normal 0 0 1
    outer loop
      vertex 3 2 5.5
      vertex 3 75.5 5.5
      vertex 0 78.5 5.5
    endloop
  endfacet
  facet normal 0 0 1
    outer loop
      vertex 65 2.5 5.5
      vertex 65 0 5.5
      vertex 67 2 5.5
    endloop
  endfacet
  facet normal 1 0 0
    outer loop
      vertex 9 0 5.5
      vertex 9 0 0
      vertex 9 2.5 0
    endloop
  endfacet
  facet normal 1 0 0
    outer loop
      vertex 9 2.5 5.5
      vertex 9 0 5.5
      vertex 9 2.5 0
    endloop
  endfacet
  facet normal 0 1 0
    outer loop
      vertex 7 2.5 0
      vertex 7 2.5 5.5
      vertex 9 2.5 0
    endloop
  endfacet
  facet normal 0 1 0
    outer loop
      vertex 9 2.5 0
      vertex 7 2.5 5.5
      vertex 9 2.5 5.5
    endloop
  endfacet
  facet normal -1 0 0
    outer loop
      vertex 7 2 0
      vertex 7 2 5.5
      vertex 7 2.5 0
    endloop
  endfacet
  facet normal -1 0 0
    outer loop
      vertex 7 2.5 0
      vertex 7 2 5.5
      vertex 7 2.5 5.5
    endloop
  endfacet
  facet normal 0 1 0
    outer loop
      vertex 3 2 0
      vertex 3 2 5.5
      vertex 7 2 0
    endloop
  endfacet
  facet normal 0 1 0
    outer loop
      vertex 7 2 0
      vertex 3 2 5.5
      vertex 7 2 5.5
    endloop
  endfacet
  facet normal 1 0 0
    outer loop
      vertex 3 75.5 0
      vertex 3 75.5 5.5
      vertex 3 2 5.5
    endloop
  endfacet
  facet normal 1 0 0
    outer loop
      vertex 3 2 0
      vertex 3 75.5 0
      vertex 3 2 5.5
    endloop
  endfacet
  facet normal 0 -1 0
    outer loop
      vertex 71 75.5 0
      vertex 71 75.5 5.5
      vertex 3 75.5 5.5
    endloop
  endfacet
  facet normal 0 -1 0
    outer loop
      vertex 3 75.5 0
      vertex 71 75.5 0
      vertex 3 75.5 5.5
    endloop
  endfacet
  facet normal -1 0 0
    outer loop
      vertex 71 75.5 5.5
      vertex 71 75.5 0
      vertex 71 2 5.5
    endloop
  endfacet
  facet normal -1 0 0
    outer loop
      vertex 71 2 5.5
      vertex 71 75.5 0
      vertex 71 2 0
    endloop
  endfacet
  facet normal 0 1 0
    outer loop
      vertex 67 2 0
      vertex 67 2 5.5
      vertex 71 2 0
    endloop
  endfacet
  facet normal 0 1 0
    outer loop
      vertex 71 2 0
      vertex 67 2 5.5
      vertex 71 2 5.5
    endloop
  endfacet
  facet normal 1 0 0
    outer loop
      vertex 67 2 5.5
      vertex 67 2 0
      vertex 67 2.5 0
    endloop
  endfacet
  facet normal 1 0 0
    outer loop
      vertex 67 2.5 5.5
      vertex 67 2 5.5
      vertex 67 2.5 0
    endloop
  endfacet
  facet normal 0 1 0
    outer loop
      vertex 65 2.5 0
      vertex 65 2.5 5.5
      vertex 67 2.5 0
    endloop
  endfacet
  facet normal 0 1 0
    outer loop
      vertex 67 2.5 0
      vertex 65 2.5 5.5
      vertex 67 2.5 5.5
    endloop
  endfacet
  facet normal -1 0 0
    outer loop
      vertex 65 0 0
      vertex 65 0 5.5
      vertex 65 2.5 0
    endloop
  endfacet
  facet normal -1 0 0
    outer loop
      vertex 65 2.5 0
      vertex 65 0 5.5
      vertex 65 2.5 5.5
    endloop
  endfacet
  facet normal 0 -1 0
    outer loop
      vertex 65 0 5.5
      vertex 65 0 0
      vertex 74 0 0
    endloop
  endfacet
  facet normal 0 -1 0
    outer loop
      vertex 74 0 5.5
      vertex 65 0 5.5
      vertex 74 0 0
    endloop
  endfacet
  facet normal 1 0 0
    outer loop
      vertex 74 0 5.5
      vertex 74 0 0
      vertex 74 78.5 0
    endloop
  endfacet
  facet normal 1 0 0
    outer loop
      vertex 74 78.5 5.5
      vertex 74 0 5.5
      vertex 74 78.5 0
    endloop
  endfacet
endsolid OpenSCAD_Model
