solid OpenSCAD_Model
  facet normal -1 0 0
    outer loop
      vertex 0 0 0
      vertex 0 0 15.5
      vertex 0 81.5 0
    endloop
  endfacet
  facet normal -1 0 0
    outer loop
      vertex 0 81.5 0
      vertex 0 0 15.5
      vertex 0 35.75 15.5
    endloop
  endfacet
  facet normal -1 0 0
    outer loop
      vertex 0 37.75 19.5
      vertex 0 35.75 15.5
      vertex 0 35.75 21.5
    endloop
  endfacet
  facet normal -1 0 0
    outer loop
      vertex 0 43.75 19.5
      vertex 0 35.75 21.5
      vertex 0 45.75 21.5
    endloop
  endfacet
  facet normal -1 0 0
    outer loop
      vertex 0 81.5 15.5
      vertex 0 81.5 0
      vertex 0 45.75 15.5
    endloop
  endfacet
  facet normal -1 0 0
    outer loop
      vertex 0 37.75 19.5
      vertex 0 35.75 21.5
      vertex 0 43.75 19.5
    endloop
  endfacet
  facet normal -1 0 0
    outer loop
      vertex 0 37.75 15.5
      vertex 0 35.75 15.5
      vertex 0 37.75 19.5
    endloop
  endfacet
  facet normal -1 0 0
    outer loop
      vertex 0 43.75 19.5
      vertex 0 45.75 15.5
      vertex 0 43.75 15.5
    endloop
  endfacet
  facet normal -1 0 0
    outer loop
      vertex 0 81.5 0
      vertex 0 35.75 15.5
      vertex 0 37.75 15.5
    endloop
  endfacet
  facet normal -1 0 0
    outer loop
      vertex 0 81.5 0
      vertex 0 37.75 15.5
      vertex 0 43.75 15.5
    endloop
  endfacet
  facet normal -1 0 0
    outer loop
      vertex 0 81.5 0
      vertex 0 43.75 15.5
      vertex 0 45.75 15.5
    endloop
  endfacet
  facet normal -1 0 0
    outer loop
      vertex 0 45.75 15.5
      vertex 0 43.75 19.5
      vertex 0 45.75 21.5
    endloop
  endfacet
  facet normal 0 -1 0
    outer loop
      vertex 0 0 15.5
      vertex 0 0 0
      vertex 68 0 0
    endloop
  endfacet
  facet normal 0 -1 0
    outer loop
      vertex 68 0 15.5
      vertex 0 0 15.5
      vertex 68 0 0
    endloop
  endfacet
  facet normal 0 0 -1
    outer loop
      vertex 65 5 0
      vertex 68 0 0
      vertex 3 5 0
    endloop
  endfacet
  facet normal 0 0 -1
    outer loop
      vertex 65 77 0
      vertex 0 81.5 0
      vertex 68 81.5 0
    endloop
  endfacet
  facet normal 0 0 -1
    outer loop
      vertex 0 0 0
      vertex 0 81.5 0
      vertex 3 77 0
    endloop
  endfacet
  facet normal 0 0 -1
    outer loop
      vertex 0 0 0
      vertex 3 77 0
      vertex 3 5 0
    endloop
  endfacet
  facet normal 0 0 -1
    outer loop
      vertex 0 0 0
      vertex 3 5 0
      vertex 68 0 0
    endloop
  endfacet
  facet normal 0 0 -1
    outer loop
      vertex 68 0 0
      vertex 65 5 0
      vertex 68 81.5 0
    endloop
  endfacet
  facet normal 0 0 -1
    outer loop
      vertex 65 5 0
      vertex 65 77 0
      vertex 68 81.5 0
    endloop
  endfacet
  facet normal 0 0 -1
    outer loop
      vertex 3 77 0
      vertex 0 81.5 0
      vertex 65 77 0
    endloop
  endfacet
  facet normal 0 1 0
    outer loop
      vertex 0 81.5 0
      vertex 0 81.5 15.5
      vertex 68 81.5 0
    endloop
  endfacet
  facet normal 0 1 0
    outer loop
      vertex 68 81.5 0
      vertex 0 81.5 15.5
      vertex 68 81.5 15.5
    endloop
  endfacet
  facet normal 0 0 1
    outer loop
      vertex 68 81.5 15.5
      vertex 3 79.5 15.5
      vertex 5 79.5 15.5
    endloop
  endfacet
  facet normal 0 0 1
    outer loop
      vertex 7 79.5 15.5
      vertex 68 81.5 15.5
      vertex 5 79.5 15.5
    endloop
  endfacet
  facet normal 0 0 1
    outer loop
      vertex 5 77 15.5
      vertex 7 77 15.5
      vertex 5 79.5 15.5
    endloop
  endfacet
  facet normal 0 0 1
    outer loop
      vertex 3 45.75 15.5
      vertex 3 79.5 15.5
      vertex 0 81.5 15.5
    endloop
  endfacet
  facet normal 0 0 1
    outer loop
      vertex 9 77 15.5
      vertex 11 77 15.5
      vertex 9 79.5 15.5
    endloop
  endfacet
  facet normal 0 0 1
    outer loop
      vertex 7 77 15.5
      vertex 7 79.5 15.5
      vertex 5 79.5 15.5
    endloop
  endfacet
  facet normal 0 0 1
    outer loop
      vertex 9 79.5 15.5
      vertex 68 81.5 15.5
      vertex 7 79.5 15.5
    endloop
  endfacet
  facet normal 0 0 1
    outer loop
      vertex 11 79.5 15.5
      vertex 68 81.5 15.5
      vertex 9 79.5 15.5
    endloop
  endfacet
  facet normal 0 0 1
    outer loop
      vertex 13 77 15.5
      vertex 15 77 15.5
      vertex 13 79.5 15.5
    endloop
  endfacet
  facet normal 0 0 1
    outer loop
      vertex 11 77 15.5
      vertex 11 79.5 15.5
      vertex 9 79.5 15.5
    endloop
  endfacet
  facet normal 0 0 1
    outer loop
      vertex 13 79.5 15.5
      vertex 68 81.5 15.5
      vertex 11 79.5 15.5
    endloop
  endfacet
  facet normal 0 0 1
    outer loop
      vertex 15 79.5 15.5
      vertex 68 81.5 15.5
      vertex 13 79.5 15.5
    endloop
  endfacet
  facet normal 0 0 1
    outer loop
      vertex 17 77 15.5
      vertex 19 77 15.5
      vertex 17 79.5 15.5
    endloop
  endfacet
  facet normal 0 0 1
    outer loop
      vertex 15 77 15.5
      vertex 15 79.5 15.5
      vertex 13 79.5 15.5
    endloop
  endfacet
  facet normal 0 0 1
    outer loop
      vertex 17 79.5 15.5
      vertex 68 81.5 15.5
      vertex 15 79.5 15.5
    endloop
  endfacet
  facet normal 0 0 1
    outer loop
      vertex 19 79.5 15.5
      vertex 68 81.5 15.5
      vertex 17 79.5 15.5
    endloop
  endfacet
  facet normal 0 0 1
    outer loop
      vertex 21 77 15.5
      vertex 23 77 15.5
      vertex 21 79.5 15.5
    endloop
  endfacet
  facet normal 0 0 1
    outer loop
      vertex 19 77 15.5
      vertex 19 79.5 15.5
      vertex 17 79.5 15.5
    endloop
  endfacet
  facet normal 0 0 1
    outer loop
      vertex 21 79.5 15.5
      vertex 68 81.5 15.5
      vertex 19 79.5 15.5
    endloop
  endfacet
  facet normal 0 0 1
    outer loop
      vertex 23 79.5 15.5
      vertex 68 81.5 15.5
      vertex 21 79.5 15.5
    endloop
  endfacet
  facet normal 0 0 1
    outer loop
      vertex 25 77 15.5
      vertex 27 77 15.5
      vertex 25 79.5 15.5
    endloop
  endfacet
  facet normal 0 0 1
    outer loop
      vertex 23 77 15.5
      vertex 23 79.5 15.5
      vertex 21 79.5 15.5
    endloop
  endfacet
  facet normal 0 0 1
    outer loop
      vertex 25 79.5 15.5
      vertex 68 81.5 15.5
      vertex 23 79.5 15.5
    endloop
  endfacet
  facet normal 0 0 1
    outer loop
      vertex 27 79.5 15.5
      vertex 68 81.5 15.5
      vertex 25 79.5 15.5
    endloop
  endfacet
  facet normal 0 0 1
    outer loop
      vertex 29 77 15.5
      vertex 31 77 15.5
      vertex 29 79.5 15.5
    endloop
  endfacet
  facet normal 0 0 1
    outer loop
      vertex 27 77 15.5
      vertex 27 79.5 15.5
      vertex 25 79.5 15.5
    endloop
  endfacet
  facet normal 0 0 1
    outer loop
      vertex 29 79.5 15.5
      vertex 68 81.5 15.5
      vertex 27 79.5 15.5
    endloop
  endfacet
  facet normal 0 0 1
    outer loop
      vertex 31 79.5 15.5
      vertex 68 81.5 15.5
      vertex 29 79.5 15.5
    endloop
  endfacet
  facet normal 0 0 1
    outer loop
      vertex 31 77 15.5
      vertex 31 79.5 15.5
      vertex 29 79.5 15.5
    endloop
  endfacet
  facet normal 0 0 1
    outer loop
      vertex 33 79.5 15.5
      vertex 68 81.5 15.5
      vertex 31 79.5 15.5
    endloop
  endfacet
  facet normal 0 0 1
    outer loop
      vertex 35 79.5 15.5
      vertex 68 81.5 15.5
      vertex 33 79.5 15.5
    endloop
  endfacet
  facet normal 0 0 1
    outer loop
      vertex 33 77 15.5
      vertex 35 77 15.5
      vertex 33 79.5 15.5
    endloop
  endfacet
  facet normal 0 0 1
    outer loop
      vertex 35 77 15.5
      vertex 35 79.5 15.5
      vertex 33 79.5 15.5
    endloop
  endfacet
  facet normal 0 0 1
    outer loop
      vertex 37 79.5 15.5
      vertex 68 81.5 15.5
      vertex 35 79.5 15.5
    endloop
  endfacet
  facet normal 0 0 1
    outer loop
      vertex 39 79.5 15.5
      vertex 68 81.5 15.5
      vertex 37 79.5 15.5
    endloop
  endfacet
  facet normal 0 0 1
    outer loop
      vertex 37 77 15.5
      vertex 39 77 15.5
      vertex 37 79.5 15.5
    endloop
  endfacet
  facet normal 0 0 1
    outer loop
      vertex 39 77 15.5
      vertex 39 79.5 15.5
      vertex 37 79.5 15.5
    endloop
  endfacet
  facet normal 0 0 1
    outer loop
      vertex 41 79.5 15.5
      vertex 68 81.5 15.5
      vertex 39 79.5 15.5
    endloop
  endfacet
  facet normal 0 0 1
    outer loop
      vertex 43 79.5 15.5
      vertex 68 81.5 15.5
      vertex 41 79.5 15.5
    endloop
  endfacet
  facet normal 0 0 1
    outer loop
      vertex 41 77 15.5
      vertex 43 77 15.5
      vertex 41 79.5 15.5
    endloop
  endfacet
  facet normal 0 0 1
    outer loop
      vertex 43 77 15.5
      vertex 43 79.5 15.5
      vertex 41 79.5 15.5
    endloop
  endfacet
  facet normal 0 0 1
    outer loop
      vertex 45 79.5 15.5
      vertex 68 81.5 15.5
      vertex 43 79.5 15.5
    endloop
  endfacet
  facet normal 0 0 1
    outer loop
      vertex 47 79.5 15.5
      vertex 68 81.5 15.5
      vertex 45 79.5 15.5
    endloop
  endfacet
  facet normal 0 0 1
    outer loop
      vertex 45 77 15.5
      vertex 47 77 15.5
      vertex 45 79.5 15.5
    endloop
  endfacet
  facet normal 0 0 1
    outer loop
      vertex 47 77 15.5
      vertex 47 79.5 15.5
      vertex 45 79.5 15.5
    endloop
  endfacet
  facet normal 0 0 1
    outer loop
      vertex 49 79.5 15.5
      vertex 68 81.5 15.5
      vertex 47 79.5 15.5
    endloop
  endfacet
  facet normal 0 0 1
    outer loop
      vertex 51 79.5 15.5
      vertex 68 81.5 15.5
      vertex 49 79.5 15.5
    endloop
  endfacet
  facet normal 0 0 1
    outer loop
      vertex 49 77 15.5
      vertex 51 77 15.5
      vertex 49 79.5 15.5
    endloop
  endfacet
  facet normal 0 0 1
    outer loop
      vertex 51 77 15.5
      vertex 51 79.5 15.5
      vertex 49 79.5 15.5
    endloop
  endfacet
  facet normal 0 0 1
    outer loop
      vertex 53 79.5 15.5
      vertex 68 81.5 15.5
      vertex 51 79.5 15.5
    endloop
  endfacet
  facet normal 0 0 1
    outer loop
      vertex 55 79.5 15.5
      vertex 68 81.5 15.5
      vertex 53 79.5 15.5
    endloop
  endfacet
  facet normal 0 0 1
    outer loop
      vertex 53 77 15.5
      vertex 55 77 15.5
      vertex 53 79.5 15.5
    endloop
  endfacet
  facet normal 0 0 1
    outer loop
      vertex 55 77 15.5
      vertex 55 79.5 15.5
      vertex 53 79.5 15.5
    endloop
  endfacet
  facet normal 0 0 1
    outer loop
      vertex 57 79.5 15.5
      vertex 68 81.5 15.5
      vertex 55 79.5 15.5
    endloop
  endfacet
  facet normal 0 0 1
    outer loop
      vertex 59 79.5 15.5
      vertex 68 81.5 15.5
      vertex 57 79.5 15.5
    endloop
  endfacet
  facet normal 0 0 1
    outer loop
      vertex 57 77 15.5
      vertex 59 77 15.5
      vertex 57 79.5 15.5
    endloop
  endfacet
  facet normal 0 0 1
    outer loop
      vertex 59 77 15.5
      vertex 59 79.5 15.5
      vertex 57 79.5 15.5
    endloop
  endfacet
  facet normal 0 0 1
    outer loop
      vertex 61 79.5 15.5
      vertex 68 81.5 15.5
      vertex 59 79.5 15.5
    endloop
  endfacet
  facet normal 0 0 1
    outer loop
      vertex 63 79.5 15.5
      vertex 68 81.5 15.5
      vertex 61 79.5 15.5
    endloop
  endfacet
  facet normal 0 0 1
    outer loop
      vertex 61 77 15.5
      vertex 63 77 15.5
      vertex 61 79.5 15.5
    endloop
  endfacet
  facet normal 0 0 1
    outer loop
      vertex 63 77 15.5
      vertex 63 79.5 15.5
      vertex 61 79.5 15.5
    endloop
  endfacet
  facet normal 0 0 1
    outer loop
      vertex 65 79.5 15.5
      vertex 68 81.5 15.5
      vertex 63 79.5 15.5
    endloop
  endfacet
  facet normal 0 0 1
    outer loop
      vertex 65 45.75 15.5
      vertex 68 45.75 15.5
      vertex 65 79.5 15.5
    endloop
  endfacet
  facet normal 0 0 1
    outer loop
      vertex 68 45.75 15.5
      vertex 68 81.5 15.5
      vertex 65 79.5 15.5
    endloop
  endfacet
  facet normal 0 0 1
    outer loop
      vertex 68 81.5 15.5
      vertex 0 81.5 15.5
      vertex 3 79.5 15.5
    endloop
  endfacet
  facet normal 0 0 1
    outer loop
      vertex 0 81.5 15.5
      vertex 0 45.75 15.5
      vertex 3 45.75 15.5
    endloop
  endfacet
  facet normal 0 1 0
    outer loop
      vertex 0 45.75 15.5
      vertex 0 45.75 21.5
      vertex 3 45.75 15.5
    endloop
  endfacet
  facet normal 0 1 0
    outer loop
      vertex 3 45.75 15.5
      vertex 0 45.75 21.5
      vertex 3 45.75 21.5
    endloop
  endfacet
  facet normal 0 0 1
    outer loop
      vertex 0 45.75 21.5
      vertex 0 35.75 21.5
      vertex 3 35.75 21.5
    endloop
  endfacet
  facet normal 0 0 1
    outer loop
      vertex 3 45.75 21.5
      vertex 0 45.75 21.5
      vertex 3 35.75 21.5
    endloop
  endfacet
  facet normal 0 -1 0
    outer loop
      vertex 0 35.75 21.5
      vertex 0 35.75 15.5
      vertex 3 35.75 15.5
    endloop
  endfacet
  facet normal 0 -1 0
    outer loop
      vertex 3 35.75 21.5
      vertex 0 35.75 21.5
      vertex 3 35.75 15.5
    endloop
  endfacet
  facet normal 0 0 1
    outer loop
      vertex 68 0 15.5
      vertex 68 35.75 15.5
      vertex 65 35.75 15.5
    endloop
  endfacet
  facet normal 0 0 1
    outer loop
      vertex 63 2.5 15.5
      vertex 68 0 15.5
      vertex 65 2.5 15.5
    endloop
  endfacet
  facet normal 0 0 1
    outer loop
      vertex 65 2.5 15.5
      vertex 68 0 15.5
      vertex 65 35.75 15.5
    endloop
  endfacet
  facet normal 0 0 1
    outer loop
      vertex 61 2.5 15.5
      vertex 68 0 15.5
      vertex 63 2.5 15.5
    endloop
  endfacet
  facet normal 0 0 1
    outer loop
      vertex 61 5 15.5
      vertex 63 2.5 15.5
      vertex 63 5 15.5
    endloop
  endfacet
  facet normal 0 0 1
    outer loop
      vertex 61 2.5 15.5
      vertex 63 2.5 15.5
      vertex 61 5 15.5
    endloop
  endfacet
  facet normal 0 0 1
    outer loop
      vertex 59 2.5 15.5
      vertex 68 0 15.5
      vertex 61 2.5 15.5
    endloop
  endfacet
  facet normal 0 0 1
    outer loop
      vertex 57 2.5 15.5
      vertex 68 0 15.5
      vertex 59 2.5 15.5
    endloop
  endfacet
  facet normal 0 0 1
    outer loop
      vertex 57 5 15.5
      vertex 59 2.5 15.5
      vertex 59 5 15.5
    endloop
  endfacet
  facet normal 0 0 1
    outer loop
      vertex 57 2.5 15.5
      vertex 59 2.5 15.5
      vertex 57 5 15.5
    endloop
  endfacet
  facet normal 0 0 1
    outer loop
      vertex 55 2.5 15.5
      vertex 68 0 15.5
      vertex 57 2.5 15.5
    endloop
  endfacet
  facet normal 0 0 1
    outer loop
      vertex 53 2.5 15.5
      vertex 68 0 15.5
      vertex 55 2.5 15.5
    endloop
  endfacet
  facet normal 0 0 1
    outer loop
      vertex 53 5 15.5
      vertex 55 2.5 15.5
      vertex 55 5 15.5
    endloop
  endfacet
  facet normal 0 0 1
    outer loop
      vertex 53 2.5 15.5
      vertex 55 2.5 15.5
      vertex 53 5 15.5
    endloop
  endfacet
  facet normal 0 0 1
    outer loop
      vertex 51 2.5 15.5
      vertex 68 0 15.5
      vertex 53 2.5 15.5
    endloop
  endfacet
  facet normal 0 0 1
    outer loop
      vertex 49 2.5 15.5
      vertex 68 0 15.5
      vertex 51 2.5 15.5
    endloop
  endfacet
  facet normal 0 0 1
    outer loop
      vertex 49 5 15.5
      vertex 51 2.5 15.5
      vertex 51 5 15.5
    endloop
  endfacet
  facet normal 0 0 1
    outer loop
      vertex 49 2.5 15.5
      vertex 51 2.5 15.5
      vertex 49 5 15.5
    endloop
  endfacet
  facet normal 0 0 1
    outer loop
      vertex 47 2.5 15.5
      vertex 68 0 15.5
      vertex 49 2.5 15.5
    endloop
  endfacet
  facet normal 0 0 1
    outer loop
      vertex 45 2.5 15.5
      vertex 68 0 15.5
      vertex 47 2.5 15.5
    endloop
  endfacet
  facet normal 0 0 1
    outer loop
      vertex 45 5 15.5
      vertex 47 2.5 15.5
      vertex 47 5 15.5
    endloop
  endfacet
  facet normal 0 0 1
    outer loop
      vertex 45 2.5 15.5
      vertex 47 2.5 15.5
      vertex 45 5 15.5
    endloop
  endfacet
  facet normal 0 0 1
    outer loop
      vertex 43 2.5 15.5
      vertex 68 0 15.5
      vertex 45 2.5 15.5
    endloop
  endfacet
  facet normal 0 0 1
    outer loop
      vertex 41 2.5 15.5
      vertex 68 0 15.5
      vertex 43 2.5 15.5
    endloop
  endfacet
  facet normal 0 0 1
    outer loop
      vertex 41 5 15.5
      vertex 43 2.5 15.5
      vertex 43 5 15.5
    endloop
  endfacet
  facet normal 0 0 1
    outer loop
      vertex 41 2.5 15.5
      vertex 43 2.5 15.5
      vertex 41 5 15.5
    endloop
  endfacet
  facet normal 0 0 1
    outer loop
      vertex 39 2.5 15.5
      vertex 68 0 15.5
      vertex 41 2.5 15.5
    endloop
  endfacet
  facet normal 0 0 1
    outer loop
      vertex 37 2.5 15.5
      vertex 68 0 15.5
      vertex 39 2.5 15.5
    endloop
  endfacet
  facet normal 0 0 1
    outer loop
      vertex 37 5 15.5
      vertex 39 2.5 15.5
      vertex 39 5 15.5
    endloop
  endfacet
  facet normal 0 0 1
    outer loop
      vertex 37 2.5 15.5
      vertex 39 2.5 15.5
      vertex 37 5 15.5
    endloop
  endfacet
  facet normal 0 0 1
    outer loop
      vertex 35 2.5 15.5
      vertex 68 0 15.5
      vertex 37 2.5 15.5
    endloop
  endfacet
  facet normal 0 0 1
    outer loop
      vertex 33 2.5 15.5
      vertex 68 0 15.5
      vertex 35 2.5 15.5
    endloop
  endfacet
  facet normal 0 0 1
    outer loop
      vertex 33 5 15.5
      vertex 35 2.5 15.5
      vertex 35 5 15.5
    endloop
  endfacet
  facet normal 0 0 1
    outer loop
      vertex 33 2.5 15.5
      vertex 35 2.5 15.5
      vertex 33 5 15.5
    endloop
  endfacet
  facet normal 0 0 1
    outer loop
      vertex 31 2.5 15.5
      vertex 68 0 15.5
      vertex 33 2.5 15.5
    endloop
  endfacet
  facet normal 0 0 1
    outer loop
      vertex 29 2.5 15.5
      vertex 68 0 15.5
      vertex 31 2.5 15.5
    endloop
  endfacet
  facet normal 0 0 1
    outer loop
      vertex 29 5 15.5
      vertex 31 2.5 15.5
      vertex 31 5 15.5
    endloop
  endfacet
  facet normal 0 0 1
    outer loop
      vertex 29 2.5 15.5
      vertex 31 2.5 15.5
      vertex 29 5 15.5
    endloop
  endfacet
  facet normal 0 0 1
    outer loop
      vertex 27 2.5 15.5
      vertex 68 0 15.5
      vertex 29 2.5 15.5
    endloop
  endfacet
  facet normal 0 0 1
    outer loop
      vertex 25 2.5 15.5
      vertex 68 0 15.5
      vertex 27 2.5 15.5
    endloop
  endfacet
  facet normal 0 0 1
    outer loop
      vertex 25 5 15.5
      vertex 27 2.5 15.5
      vertex 27 5 15.5
    endloop
  endfacet
  facet normal 0 0 1
    outer loop
      vertex 25 2.5 15.5
      vertex 27 2.5 15.5
      vertex 25 5 15.5
    endloop
  endfacet
  facet normal 0 0 1
    outer loop
      vertex 23 2.5 15.5
      vertex 68 0 15.5
      vertex 25 2.5 15.5
    endloop
  endfacet
  facet normal 0 0 1
    outer loop
      vertex 21 2.5 15.5
      vertex 68 0 15.5
      vertex 23 2.5 15.5
    endloop
  endfacet
  facet normal 0 0 1
    outer loop
      vertex 21 5 15.5
      vertex 23 2.5 15.5
      vertex 23 5 15.5
    endloop
  endfacet
  facet normal 0 0 1
    outer loop
      vertex 21 2.5 15.5
      vertex 23 2.5 15.5
      vertex 21 5 15.5
    endloop
  endfacet
  facet normal 0 0 1
    outer loop
      vertex 19 2.5 15.5
      vertex 68 0 15.5
      vertex 21 2.5 15.5
    endloop
  endfacet
  facet normal 0 0 1
    outer loop
      vertex 17 2.5 15.5
      vertex 68 0 15.5
      vertex 19 2.5 15.5
    endloop
  endfacet
  facet normal 0 0 1
    outer loop
      vertex 17 5 15.5
      vertex 19 2.5 15.5
      vertex 19 5 15.5
    endloop
  endfacet
  facet normal 0 0 1
    outer loop
      vertex 17 2.5 15.5
      vertex 19 2.5 15.5
      vertex 17 5 15.5
    endloop
  endfacet
  facet normal 0 0 1
    outer loop
      vertex 15 2.5 15.5
      vertex 68 0 15.5
      vertex 17 2.5 15.5
    endloop
  endfacet
  facet normal 0 0 1
    outer loop
      vertex 13 2.5 15.5
      vertex 68 0 15.5
      vertex 15 2.5 15.5
    endloop
  endfacet
  facet normal 0 0 1
    outer loop
      vertex 13 5 15.5
      vertex 15 2.5 15.5
      vertex 15 5 15.5
    endloop
  endfacet
  facet normal 0 0 1
    outer loop
      vertex 13 2.5 15.5
      vertex 15 2.5 15.5
      vertex 13 5 15.5
    endloop
  endfacet
  facet normal 0 0 1
    outer loop
      vertex 11 2.5 15.5
      vertex 68 0 15.5
      vertex 13 2.5 15.5
    endloop
  endfacet
  facet normal 0 0 1
    outer loop
      vertex 9 2.5 15.5
      vertex 68 0 15.5
      vertex 11 2.5 15.5
    endloop
  endfacet
  facet normal 0 0 1
    outer loop
      vertex 9 5 15.5
      vertex 11 2.5 15.5
      vertex 11 5 15.5
    endloop
  endfacet
  facet normal 0 0 1
    outer loop
      vertex 9 2.5 15.5
      vertex 11 2.5 15.5
      vertex 9 5 15.5
    endloop
  endfacet
  facet normal 0 0 1
    outer loop
      vertex 7 2.5 15.5
      vertex 68 0 15.5
      vertex 9 2.5 15.5
    endloop
  endfacet
  facet normal 0 0 1
    outer loop
      vertex 5 2.5 15.5
      vertex 68 0 15.5
      vertex 7 2.5 15.5
    endloop
  endfacet
  facet normal 0 0 1
    outer loop
      vertex 5 5 15.5
      vertex 7 2.5 15.5
      vertex 7 5 15.5
    endloop
  endfacet
  facet normal 0 0 1
    outer loop
      vertex 5 2.5 15.5
      vertex 7 2.5 15.5
      vertex 5 5 15.5
    endloop
  endfacet
  facet normal 0 0 1
    outer loop
      vertex 3 2.5 15.5
      vertex 68 0 15.5
      vertex 5 2.5 15.5
    endloop
  endfacet
  facet normal 0 0 1
    outer loop
      vertex 0 0 15.5
      vertex 68 0 15.5
      vertex 3 2.5 15.5
    endloop
  endfacet
  facet normal 0 0 1
    outer loop
      vertex 0 35.75 15.5
      vertex 3 2.5 15.5
      vertex 3 35.75 15.5
    endloop
  endfacet
  facet normal 0 0 1
    outer loop
      vertex 0 0 15.5
      vertex 3 2.5 15.5
      vertex 0 35.75 15.5
    endloop
  endfacet
  facet normal 0 1 0
    outer loop
      vertex 3 37.75 19.5
      vertex 3 37.75 15.5
      vertex 0 37.75 19.5
    endloop
  endfacet
  facet normal 0 1 0
    outer loop
      vertex 0 37.75 19.5
      vertex 3 37.75 15.5
      vertex 0 37.75 15.5
    endloop
  endfacet
  facet normal 0 0 -1
    outer loop
      vertex 3 43.75 19.5
      vertex 3 37.75 19.5
      vertex 0 43.75 19.5
    endloop
  endfacet
  facet normal 0 0 -1
    outer loop
      vertex 0 43.75 19.5
      vertex 3 37.75 19.5
      vertex 0 37.75 19.5
    endloop
  endfacet
  facet normal 0 -1 0
    outer loop
      vertex 3 43.75 15.5
      vertex 3 43.75 19.5
      vertex 0 43.75 19.5
    endloop
  endfacet
  facet normal 0 -1 0
    outer loop
      vertex 0 43.75 15.5
      vertex 3 43.75 15.5
      vertex 0 43.75 19.5
    endloop
  endfacet
  facet normal 0 0 1
    outer loop
      vertex 3 37.75 15.5
      vertex 3 43.75 15.5
      vertex 0 43.75 15.5
    endloop
  endfacet
  facet normal 0 0 1
    outer loop
      vertex 0 37.75 15.5
      vertex 3 37.75 15.5
      vertex 0 43.75 15.5
    endloop
  endfacet
  facet normal 1 0 0
    outer loop
      vertex 68 0 15.5
      vertex 68 0 0
      vertex 68 81.5 0
    endloop
  endfacet
  facet normal 1 0 0
    outer loop
      vertex 68 35.75 15.5
      vertex 68 0 15.5
      vertex 68 81.5 0
    endloop
  endfacet
  facet normal 1 0 0
    outer loop
      vertex 68 45.75 15.5
      vertex 68 43.75 15.5
      vertex 68 81.5 0
    endloop
  endfacet
  facet normal 1 0 0
    outer loop
      vertex 68 81.5 15.5
      vertex 68 45.75 15.5
      vertex 68 81.5 0
    endloop
  endfacet
  facet normal 1 0 0
    outer loop
      vertex 68 37.75 15.5
      vertex 68 35.75 15.5
      vertex 68 81.5 0
    endloop
  endfacet
  facet normal 1 0 0
    outer loop
      vertex 68 43.75 15.5
      vertex 68 37.75 15.5
      vertex 68 81.5 0
    endloop
  endfacet
  facet normal 1 0 0
    outer loop
      vertex 68 37.75 19.5
      vertex 68 43.75 19.5
      vertex 68 45.75 21.5
    endloop
  endfacet
  facet normal 1 0 0
    outer loop
      vertex 68 37.75 15.5
      vertex 68 37.75 19.5
      vertex 68 35.75 15.5
    endloop
  endfacet
  facet normal 1 0 0
    outer loop
      vertex 68 45.75 21.5
      vertex 68 43.75 19.5
      vertex 68 45.75 15.5
    endloop
  endfacet
  facet normal 1 0 0
    outer loop
      vertex 68 43.75 19.5
      vertex 68 43.75 15.5
      vertex 68 45.75 15.5
    endloop
  endfacet
  facet normal 1 0 0
    outer loop
      vertex 68 35.75 21.5
      vertex 68 37.75 19.5
      vertex 68 45.75 21.5
    endloop
  endfacet
  facet normal 1 0 0
    outer loop
      vertex 68 35.75 21.5
      vertex 68 35.75 15.5
      vertex 68 37.75 19.5
    endloop
  endfacet
  facet normal 1 0 0
    outer loop
      vertex 3 5 3
      vertex 3 5 0
      vertex 3 77 0
    endloop
  endfacet
  facet normal 1 0 0
    outer loop
      vertex 3 79.5 15.5
      vertex 3 5 3
      vertex 3 77 3
    endloop
  endfacet
  facet normal 1 0 0
    outer loop
      vertex 3 77 3
      vertex 3 5 3
      vertex 3 77 0
    endloop
  endfacet
  facet normal 1 0 0
    outer loop
      vertex 3 79.5 15.5
      vertex 3 77 3
      vertex 3 79.5 3
    endloop
  endfacet
  facet normal 1 0 0
    outer loop
      vertex 3 45.75 15.5
      vertex 3 5 3
      vertex 3 79.5 15.5
    endloop
  endfacet
  facet normal 1 0 0
    outer loop
      vertex 3 43.75 15.5
      vertex 3 5 3
      vertex 3 45.75 15.5
    endloop
  endfacet
  facet normal 1 0 0
    outer loop
      vertex 3 35.75 15.5
      vertex 3 2.5 15.5
      vertex 3 5 3
    endloop
  endfacet
  facet normal 1 0 0
    outer loop
      vertex 3 37.75 19.5
      vertex 3 43.75 19.5
      vertex 3 45.75 21.5
    endloop
  endfacet
  facet normal 1 0 0
    outer loop
      vertex 3 37.75 15.5
      vertex 3 35.75 15.5
      vertex 3 5 3
    endloop
  endfacet
  facet normal 1 0 0
    outer loop
      vertex 3 35.75 21.5
      vertex 3 37.75 19.5
      vertex 3 45.75 21.5
    endloop
  endfacet
  facet normal 1 0 0
    outer loop
      vertex 3 37.75 15.5
      vertex 3 37.75 19.5
      vertex 3 35.75 15.5
    endloop
  endfacet
  facet normal 1 0 0
    outer loop
      vertex 3 45.75 21.5
      vertex 3 43.75 19.5
      vertex 3 45.75 15.5
    endloop
  endfacet
  facet normal 1 0 0
    outer loop
      vertex 3 43.75 19.5
      vertex 3 43.75 15.5
      vertex 3 45.75 15.5
    endloop
  endfacet
  facet normal 1 0 0
    outer loop
      vertex 3 37.75 15.5
      vertex 3 5 3
      vertex 3 43.75 15.5
    endloop
  endfacet
  facet normal 1 0 0
    outer loop
      vertex 3 2.5 3
      vertex 3 5 3
      vertex 3 2.5 15.5
    endloop
  endfacet
  facet normal 1 0 0
    outer loop
      vertex 3 35.75 21.5
      vertex 3 35.75 15.5
      vertex 3 37.75 19.5
    endloop
  endfacet
  facet normal 0 -1 0
    outer loop
      vertex 59 77 3
      vertex 57 77 3
      vertex 65 77 0
    endloop
  endfacet
  facet normal 0 -1 0
    outer loop
      vertex 65 77 0
      vertex 65 77 3
      vertex 63 77 3
    endloop
  endfacet
  facet normal 0 -1 0
    outer loop
      vertex 61 77 3
      vertex 65 77 0
      vertex 63 77 3
    endloop
  endfacet
  facet normal 0 -1 0
    outer loop
      vertex 63 77 15.5
      vertex 61 77 15.5
      vertex 63 77 3
    endloop
  endfacet
  facet normal 0 -1 0
    outer loop
      vertex 61 77 15.5
      vertex 61 77 3
      vertex 63 77 3
    endloop
  endfacet
  facet normal 0 -1 0
    outer loop
      vertex 55 77 3
      vertex 53 77 3
      vertex 65 77 0
    endloop
  endfacet
  facet normal 0 -1 0
    outer loop
      vertex 61 77 3
      vertex 59 77 3
      vertex 65 77 0
    endloop
  endfacet
  facet normal 0 -1 0
    outer loop
      vertex 59 77 15.5
      vertex 57 77 15.5
      vertex 59 77 3
    endloop
  endfacet
  facet normal 0 -1 0
    outer loop
      vertex 57 77 15.5
      vertex 57 77 3
      vertex 59 77 3
    endloop
  endfacet
  facet normal 0 -1 0
    outer loop
      vertex 51 77 3
      vertex 49 77 3
      vertex 65 77 0
    endloop
  endfacet
  facet normal 0 -1 0
    outer loop
      vertex 57 77 3
      vertex 55 77 3
      vertex 65 77 0
    endloop
  endfacet
  facet normal 0 -1 0
    outer loop
      vertex 55 77 15.5
      vertex 53 77 15.5
      vertex 55 77 3
    endloop
  endfacet
  facet normal 0 -1 0
    outer loop
      vertex 53 77 15.5
      vertex 53 77 3
      vertex 55 77 3
    endloop
  endfacet
  facet normal 0 -1 0
    outer loop
      vertex 47 77 3
      vertex 45 77 3
      vertex 65 77 0
    endloop
  endfacet
  facet normal 0 -1 0
    outer loop
      vertex 53 77 3
      vertex 51 77 3
      vertex 65 77 0
    endloop
  endfacet
  facet normal 0 -1 0
    outer loop
      vertex 51 77 15.5
      vertex 49 77 15.5
      vertex 51 77 3
    endloop
  endfacet
  facet normal 0 -1 0
    outer loop
      vertex 49 77 15.5
      vertex 49 77 3
      vertex 51 77 3
    endloop
  endfacet
  facet normal 0 -1 0
    outer loop
      vertex 43 77 3
      vertex 41 77 3
      vertex 65 77 0
    endloop
  endfacet
  facet normal 0 -1 0
    outer loop
      vertex 49 77 3
      vertex 47 77 3
      vertex 65 77 0
    endloop
  endfacet
  facet normal 0 -1 0
    outer loop
      vertex 47 77 15.5
      vertex 45 77 15.5
      vertex 47 77 3
    endloop
  endfacet
  facet normal 0 -1 0
    outer loop
      vertex 45 77 15.5
      vertex 45 77 3
      vertex 47 77 3
    endloop
  endfacet
  facet normal 0 -1 0
    outer loop
      vertex 39 77 3
      vertex 37 77 3
      vertex 65 77 0
    endloop
  endfacet
  facet normal 0 -1 0
    outer loop
      vertex 45 77 3
      vertex 43 77 3
      vertex 65 77 0
    endloop
  endfacet
  facet normal 0 -1 0
    outer loop
      vertex 43 77 15.5
      vertex 41 77 15.5
      vertex 43 77 3
    endloop
  endfacet
  facet normal 0 -1 0
    outer loop
      vertex 41 77 15.5
      vertex 41 77 3
      vertex 43 77 3
    endloop
  endfacet
  facet normal 0 -1 0
    outer loop
      vertex 35 77 3
      vertex 33 77 3
      vertex 65 77 0
    endloop
  endfacet
  facet normal 0 -1 0
    outer loop
      vertex 41 77 3
      vertex 39 77 3
      vertex 65 77 0
    endloop
  endfacet
  facet normal 0 -1 0
    outer loop
      vertex 39 77 15.5
      vertex 37 77 15.5
      vertex 39 77 3
    endloop
  endfacet
  facet normal 0 -1 0
    outer loop
      vertex 37 77 15.5
      vertex 37 77 3
      vertex 39 77 3
    endloop
  endfacet
  facet normal 0 -1 0
    outer loop
      vertex 31 77 3
      vertex 29 77 3
      vertex 65 77 0
    endloop
  endfacet
  facet normal 0 -1 0
    outer loop
      vertex 37 77 3
      vertex 35 77 3
      vertex 65 77 0
    endloop
  endfacet
  facet normal 0 -1 0
    outer loop
      vertex 35 77 15.5
      vertex 33 77 15.5
      vertex 35 77 3
    endloop
  endfacet
  facet normal 0 -1 0
    outer loop
      vertex 33 77 15.5
      vertex 33 77 3
      vertex 35 77 3
    endloop
  endfacet
  facet normal 0 -1 0
    outer loop
      vertex 27 77 3
      vertex 25 77 3
      vertex 65 77 0
    endloop
  endfacet
  facet normal 0 -1 0
    outer loop
      vertex 33 77 3
      vertex 31 77 3
      vertex 65 77 0
    endloop
  endfacet
  facet normal 0 -1 0
    outer loop
      vertex 31 77 15.5
      vertex 29 77 15.5
      vertex 31 77 3
    endloop
  endfacet
  facet normal 0 -1 0
    outer loop
      vertex 29 77 15.5
      vertex 29 77 3
      vertex 31 77 3
    endloop
  endfacet
  facet normal 0 -1 0
    outer loop
      vertex 23 77 3
      vertex 21 77 3
      vertex 65 77 0
    endloop
  endfacet
  facet normal 0 -1 0
    outer loop
      vertex 29 77 3
      vertex 27 77 3
      vertex 65 77 0
    endloop
  endfacet
  facet normal 0 -1 0
    outer loop
      vertex 27 77 15.5
      vertex 25 77 15.5
      vertex 27 77 3
    endloop
  endfacet
  facet normal 0 -1 0
    outer loop
      vertex 25 77 15.5
      vertex 25 77 3
      vertex 27 77 3
    endloop
  endfacet
  facet normal 0 -1 0
    outer loop
      vertex 19 77 3
      vertex 17 77 3
      vertex 65 77 0
    endloop
  endfacet
  facet normal 0 -1 0
    outer loop
      vertex 25 77 3
      vertex 23 77 3
      vertex 65 77 0
    endloop
  endfacet
  facet normal 0 -1 0
    outer loop
      vertex 23 77 15.5
      vertex 21 77 15.5
      vertex 23 77 3
    endloop
  endfacet
  facet normal 0 -1 0
    outer loop
      vertex 21 77 15.5
      vertex 21 77 3
      vertex 23 77 3
    endloop
  endfacet
  facet normal 0 -1 0
    outer loop
      vertex 15 77 3
      vertex 13 77 3
      vertex 65 77 0
    endloop
  endfacet
  facet normal 0 -1 0
    outer loop
      vertex 21 77 3
      vertex 19 77 3
      vertex 65 77 0
    endloop
  endfacet
  facet normal 0 -1 0
    outer loop
      vertex 19 77 15.5
      vertex 17 77 15.5
      vertex 19 77 3
    endloop
  endfacet
  facet normal 0 -1 0
    outer loop
      vertex 17 77 15.5
      vertex 17 77 3
      vertex 19 77 3
    endloop
  endfacet
  facet normal 0 -1 0
    outer loop
      vertex 11 77 3
      vertex 9 77 3
      vertex 65 77 0
    endloop
  endfacet
  facet normal 0 -1 0
    outer loop
      vertex 17 77 3
      vertex 15 77 3
      vertex 65 77 0
    endloop
  endfacet
  facet normal 0 -1 0
    outer loop
      vertex 15 77 15.5
      vertex 13 77 15.5
      vertex 15 77 3
    endloop
  endfacet
  facet normal 0 -1 0
    outer loop
      vertex 13 77 15.5
      vertex 13 77 3
      vertex 15 77 3
    endloop
  endfacet
  facet normal 0 -1 0
    outer loop
      vertex 7 77 3
      vertex 5 77 3
      vertex 65 77 0
    endloop
  endfacet
  facet normal 0 -1 0
    outer loop
      vertex 13 77 3
      vertex 11 77 3
      vertex 65 77 0
    endloop
  endfacet
  facet normal 0 -1 0
    outer loop
      vertex 11 77 15.5
      vertex 9 77 15.5
      vertex 11 77 3
    endloop
  endfacet
  facet normal 0 -1 0
    outer loop
      vertex 9 77 15.5
      vertex 9 77 3
      vertex 11 77 3
    endloop
  endfacet
  facet normal 0 -1 0
    outer loop
      vertex 9 77 3
      vertex 7 77 3
      vertex 65 77 0
    endloop
  endfacet
  facet normal 0 -1 0
    outer loop
      vertex 7 77 15.5
      vertex 5 77 15.5
      vertex 7 77 3
    endloop
  endfacet
  facet normal 0 -1 0
    outer loop
      vertex 5 77 15.5
      vertex 5 77 3
      vertex 7 77 3
    endloop
  endfacet
  facet normal 0 -1 0
    outer loop
      vertex 5 77 3
      vertex 3 77 3
      vertex 65 77 0
    endloop
  endfacet
  facet normal 0 -1 0
    outer loop
      vertex 3 77 3
      vertex 3 77 0
      vertex 65 77 0
    endloop
  endfacet
  facet normal -1 0 0
    outer loop
      vertex 65 37.75 19.5
      vertex 65 35.75 21.5
      vertex 65 45.75 21.5
    endloop
  endfacet
  facet normal -1 0 0
    outer loop
      vertex 65 37.75 19.5
      vertex 65 45.75 21.5
      vertex 65 43.75 19.5
    endloop
  endfacet
  facet normal -1 0 0
    outer loop
      vertex 65 35.75 15.5
      vertex 65 79.5 3
      vertex 65 2.5 15.5
    endloop
  endfacet
  facet normal -1 0 0
    outer loop
      vertex 65 45.75 15.5
      vertex 65 79.5 15.5
      vertex 65 79.5 3
    endloop
  endfacet
  facet normal -1 0 0
    outer loop
      vertex 65 37.75 15.5
      vertex 65 79.5 3
      vertex 65 35.75 15.5
    endloop
  endfacet
  facet normal -1 0 0
    outer loop
      vertex 65 79.5 3
      vertex 65 77 3
      vertex 65 2.5 15.5
    endloop
  endfacet
  facet normal -1 0 0
    outer loop
      vertex 65 77 3
      vertex 65 77 0
      vertex 65 2.5 15.5
    endloop
  endfacet
  facet normal -1 0 0
    outer loop
      vertex 65 77 0
      vertex 65 5 0
      vertex 65 5 3
    endloop
  endfacet
  facet normal -1 0 0
    outer loop
      vertex 65 77 0
      vertex 65 5 3
      vertex 65 2.5 15.5
    endloop
  endfacet
  facet normal -1 0 0
    outer loop
      vertex 65 37.75 15.5
      vertex 65 35.75 15.5
      vertex 65 37.75 19.5
    endloop
  endfacet
  facet normal -1 0 0
    outer loop
      vertex 65 43.75 15.5
      vertex 65 79.5 3
      vertex 65 37.75 15.5
    endloop
  endfacet
  facet normal -1 0 0
    outer loop
      vertex 65 45.75 15.5
      vertex 65 79.5 3
      vertex 65 43.75 15.5
    endloop
  endfacet
  facet normal -1 0 0
    outer loop
      vertex 65 45.75 15.5
      vertex 65 43.75 15.5
      vertex 65 45.75 21.5
    endloop
  endfacet
  facet normal -1 0 0
    outer loop
      vertex 65 43.75 15.5
      vertex 65 43.75 19.5
      vertex 65 45.75 21.5
    endloop
  endfacet
  facet normal -1 0 0
    outer loop
      vertex 65 35.75 15.5
      vertex 65 35.75 21.5
      vertex 65 37.75 19.5
    endloop
  endfacet
  facet normal -1 0 0
    outer loop
      vertex 65 2.5 3
      vertex 65 2.5 15.5
      vertex 65 5 3
    endloop
  endfacet
  facet normal 0 1 0
    outer loop
      vertex 5 5 3
      vertex 5 5 15.5
      vertex 7 5 15.5
    endloop
  endfacet
  facet normal 0 1 0
    outer loop
      vertex 5 5 3
      vertex 7 5 15.5
      vertex 7 5 3
    endloop
  endfacet
  facet normal 0 1 0
    outer loop
      vertex 5 5 3
      vertex 65 5 0
      vertex 3 5 3
    endloop
  endfacet
  facet normal 0 1 0
    outer loop
      vertex 7 5 3
      vertex 65 5 0
      vertex 5 5 3
    endloop
  endfacet
  facet normal 0 1 0
    outer loop
      vertex 9 5 3
      vertex 9 5 15.5
      vertex 11 5 15.5
    endloop
  endfacet
  facet normal 0 1 0
    outer loop
      vertex 9 5 3
      vertex 11 5 15.5
      vertex 11 5 3
    endloop
  endfacet
  facet normal 0 1 0
    outer loop
      vertex 9 5 3
      vertex 65 5 0
      vertex 7 5 3
    endloop
  endfacet
  facet normal 0 1 0
    outer loop
      vertex 11 5 3
      vertex 65 5 0
      vertex 9 5 3
    endloop
  endfacet
  facet normal 0 1 0
    outer loop
      vertex 13 5 3
      vertex 13 5 15.5
      vertex 15 5 15.5
    endloop
  endfacet
  facet normal 0 1 0
    outer loop
      vertex 13 5 3
      vertex 15 5 15.5
      vertex 15 5 3
    endloop
  endfacet
  facet normal 0 1 0
    outer loop
      vertex 13 5 3
      vertex 65 5 0
      vertex 11 5 3
    endloop
  endfacet
  facet normal 0 1 0
    outer loop
      vertex 15 5 3
      vertex 65 5 0
      vertex 13 5 3
    endloop
  endfacet
  facet normal 0 1 0
    outer loop
      vertex 17 5 3
      vertex 17 5 15.5
      vertex 19 5 15.5
    endloop
  endfacet
  facet normal 0 1 0
    outer loop
      vertex 17 5 3
      vertex 19 5 15.5
      vertex 19 5 3
    endloop
  endfacet
  facet normal 0 1 0
    outer loop
      vertex 17 5 3
      vertex 65 5 0
      vertex 15 5 3
    endloop
  endfacet
  facet normal 0 1 0
    outer loop
      vertex 19 5 3
      vertex 65 5 0
      vertex 17 5 3
    endloop
  endfacet
  facet normal 0 1 0
    outer loop
      vertex 21 5 3
      vertex 21 5 15.5
      vertex 23 5 15.5
    endloop
  endfacet
  facet normal 0 1 0
    outer loop
      vertex 21 5 3
      vertex 23 5 15.5
      vertex 23 5 3
    endloop
  endfacet
  facet normal 0 1 0
    outer loop
      vertex 21 5 3
      vertex 65 5 0
      vertex 19 5 3
    endloop
  endfacet
  facet normal 0 1 0
    outer loop
      vertex 23 5 3
      vertex 65 5 0
      vertex 21 5 3
    endloop
  endfacet
  facet normal 0 1 0
    outer loop
      vertex 25 5 3
      vertex 25 5 15.5
      vertex 27 5 15.5
    endloop
  endfacet
  facet normal 0 1 0
    outer loop
      vertex 25 5 3
      vertex 27 5 15.5
      vertex 27 5 3
    endloop
  endfacet
  facet normal 0 1 0
    outer loop
      vertex 25 5 3
      vertex 65 5 0
      vertex 23 5 3
    endloop
  endfacet
  facet normal 0 1 0
    outer loop
      vertex 27 5 3
      vertex 65 5 0
      vertex 25 5 3
    endloop
  endfacet
  facet normal 0 1 0
    outer loop
      vertex 29 5 3
      vertex 29 5 15.5
      vertex 31 5 15.5
    endloop
  endfacet
  facet normal 0 1 0
    outer loop
      vertex 29 5 3
      vertex 31 5 15.5
      vertex 31 5 3
    endloop
  endfacet
  facet normal 0 1 0
    outer loop
      vertex 29 5 3
      vertex 65 5 0
      vertex 27 5 3
    endloop
  endfacet
  facet normal 0 1 0
    outer loop
      vertex 31 5 3
      vertex 65 5 0
      vertex 29 5 3
    endloop
  endfacet
  facet normal 0 1 0
    outer loop
      vertex 33 5 3
      vertex 33 5 15.5
      vertex 35 5 15.5
    endloop
  endfacet
  facet normal 0 1 0
    outer loop
      vertex 33 5 3
      vertex 35 5 15.5
      vertex 35 5 3
    endloop
  endfacet
  facet normal 0 1 0
    outer loop
      vertex 33 5 3
      vertex 65 5 0
      vertex 31 5 3
    endloop
  endfacet
  facet normal 0 1 0
    outer loop
      vertex 35 5 3
      vertex 65 5 0
      vertex 33 5 3
    endloop
  endfacet
  facet normal 0 1 0
    outer loop
      vertex 37 5 3
      vertex 37 5 15.5
      vertex 39 5 15.5
    endloop
  endfacet
  facet normal 0 1 0
    outer loop
      vertex 37 5 3
      vertex 39 5 15.5
      vertex 39 5 3
    endloop
  endfacet
  facet normal 0 1 0
    outer loop
      vertex 37 5 3
      vertex 65 5 0
      vertex 35 5 3
    endloop
  endfacet
  facet normal 0 1 0
    outer loop
      vertex 39 5 3
      vertex 65 5 0
      vertex 37 5 3
    endloop
  endfacet
  facet normal 0 1 0
    outer loop
      vertex 41 5 3
      vertex 41 5 15.5
      vertex 43 5 15.5
    endloop
  endfacet
  facet normal 0 1 0
    outer loop
      vertex 41 5 3
      vertex 43 5 15.5
      vertex 43 5 3
    endloop
  endfacet
  facet normal 0 1 0
    outer loop
      vertex 41 5 3
      vertex 65 5 0
      vertex 39 5 3
    endloop
  endfacet
  facet normal 0 1 0
    outer loop
      vertex 43 5 3
      vertex 65 5 0
      vertex 41 5 3
    endloop
  endfacet
  facet normal 0 1 0
    outer loop
      vertex 45 5 3
      vertex 45 5 15.5
      vertex 47 5 15.5
    endloop
  endfacet
  facet normal 0 1 0
    outer loop
      vertex 45 5 3
      vertex 47 5 15.5
      vertex 47 5 3
    endloop
  endfacet
  facet normal 0 1 0
    outer loop
      vertex 45 5 3
      vertex 65 5 0
      vertex 43 5 3
    endloop
  endfacet
  facet normal 0 1 0
    outer loop
      vertex 47 5 3
      vertex 65 5 0
      vertex 45 5 3
    endloop
  endfacet
  facet normal 0 1 0
    outer loop
      vertex 49 5 3
      vertex 49 5 15.5
      vertex 51 5 15.5
    endloop
  endfacet
  facet normal 0 1 0
    outer loop
      vertex 49 5 3
      vertex 51 5 15.5
      vertex 51 5 3
    endloop
  endfacet
  facet normal 0 1 0
    outer loop
      vertex 49 5 3
      vertex 65 5 0
      vertex 47 5 3
    endloop
  endfacet
  facet normal 0 1 0
    outer loop
      vertex 51 5 3
      vertex 65 5 0
      vertex 49 5 3
    endloop
  endfacet
  facet normal 0 1 0
    outer loop
      vertex 53 5 3
      vertex 53 5 15.5
      vertex 55 5 15.5
    endloop
  endfacet
  facet normal 0 1 0
    outer loop
      vertex 53 5 3
      vertex 55 5 15.5
      vertex 55 5 3
    endloop
  endfacet
  facet normal 0 1 0
    outer loop
      vertex 53 5 3
      vertex 65 5 0
      vertex 51 5 3
    endloop
  endfacet
  facet normal 0 1 0
    outer loop
      vertex 55 5 3
      vertex 65 5 0
      vertex 53 5 3
    endloop
  endfacet
  facet normal 0 1 0
    outer loop
      vertex 57 5 3
      vertex 57 5 15.5
      vertex 59 5 15.5
    endloop
  endfacet
  facet normal 0 1 0
    outer loop
      vertex 57 5 3
      vertex 59 5 15.5
      vertex 59 5 3
    endloop
  endfacet
  facet normal 0 1 0
    outer loop
      vertex 57 5 3
      vertex 65 5 0
      vertex 55 5 3
    endloop
  endfacet
  facet normal 0 1 0
    outer loop
      vertex 59 5 3
      vertex 65 5 0
      vertex 57 5 3
    endloop
  endfacet
  facet normal 0 1 0
    outer loop
      vertex 61 5 3
      vertex 61 5 15.5
      vertex 63 5 15.5
    endloop
  endfacet
  facet normal 0 1 0
    outer loop
      vertex 61 5 3
      vertex 63 5 15.5
      vertex 63 5 3
    endloop
  endfacet
  facet normal 0 1 0
    outer loop
      vertex 61 5 3
      vertex 65 5 0
      vertex 59 5 3
    endloop
  endfacet
  facet normal 0 1 0
    outer loop
      vertex 63 5 3
      vertex 65 5 3
      vertex 65 5 0
    endloop
  endfacet
  facet normal 0 1 0
    outer loop
      vertex 63 5 3
      vertex 65 5 0
      vertex 61 5 3
    endloop
  endfacet
  facet normal 0 1 0
    outer loop
      vertex 65 5 0
      vertex 3 5 0
      vertex 3 5 3
    endloop
  endfacet
  facet normal 0 1 0
    outer loop
      vertex 65 45.75 15.5
      vertex 65 45.75 21.5
      vertex 68 45.75 15.5
    endloop
  endfacet
  facet normal 0 1 0
    outer loop
      vertex 68 45.75 15.5
      vertex 65 45.75 21.5
      vertex 68 45.75 21.5
    endloop
  endfacet
  facet normal 0 -1 0
    outer loop
      vertex 65 79.5 3
      vertex 65 79.5 15.5
      vertex 63 79.5 15.5
    endloop
  endfacet
  facet normal 0 -1 0
    outer loop
      vertex 63 79.5 3
      vertex 65 79.5 3
      vertex 63 79.5 15.5
    endloop
  endfacet
  facet normal 1 0 0
    outer loop
      vertex 63 79.5 3
      vertex 63 79.5 15.5
      vertex 63 77 15.5
    endloop
  endfacet
  facet normal 1 0 0
    outer loop
      vertex 63 77 3
      vertex 63 79.5 3
      vertex 63 77 15.5
    endloop
  endfacet
  facet normal -1 0 0
    outer loop
      vertex 61 79.5 15.5
      vertex 61 79.5 3
      vertex 61 77 15.5
    endloop
  endfacet
  facet normal -1 0 0
    outer loop
      vertex 61 77 15.5
      vertex 61 79.5 3
      vertex 61 77 3
    endloop
  endfacet
  facet normal 0 -1 0
    outer loop
      vertex 61 79.5 3
      vertex 61 79.5 15.5
      vertex 59 79.5 15.5
    endloop
  endfacet
  facet normal 0 -1 0
    outer loop
      vertex 59 79.5 3
      vertex 61 79.5 3
      vertex 59 79.5 15.5
    endloop
  endfacet
  facet normal 1 0 0
    outer loop
      vertex 59 79.5 3
      vertex 59 79.5 15.5
      vertex 59 77 15.5
    endloop
  endfacet
  facet normal 1 0 0
    outer loop
      vertex 59 77 3
      vertex 59 79.5 3
      vertex 59 77 15.5
    endloop
  endfacet
  facet normal -1 0 0
    outer loop
      vertex 57 79.5 15.5
      vertex 57 79.5 3
      vertex 57 77 15.5
    endloop
  endfacet
  facet normal -1 0 0
    outer loop
      vertex 57 77 15.5
      vertex 57 79.5 3
      vertex 57 77 3
    endloop
  endfacet
  facet normal 0 -1 0
    outer loop
      vertex 57 79.5 3
      vertex 57 79.5 15.5
      vertex 55 79.5 15.5
    endloop
  endfacet
  facet normal 0 -1 0
    outer loop
      vertex 55 79.5 3
      vertex 57 79.5 3
      vertex 55 79.5 15.5
    endloop
  endfacet
  facet normal 1 0 0
    outer loop
      vertex 55 79.5 3
      vertex 55 79.5 15.5
      vertex 55 77 15.5
    endloop
  endfacet
  facet normal 1 0 0
    outer loop
      vertex 55 77 3
      vertex 55 79.5 3
      vertex 55 77 15.5
    endloop
  endfacet
  facet normal -1 0 0
    outer loop
      vertex 53 79.5 15.5
      vertex 53 79.5 3
      vertex 53 77 15.5
    endloop
  endfacet
  facet normal -1 0 0
    outer loop
      vertex 53 77 15.5
      vertex 53 79.5 3
      vertex 53 77 3
    endloop
  endfacet
  facet normal 0 -1 0
    outer loop
      vertex 53 79.5 3
      vertex 53 79.5 15.5
      vertex 51 79.5 15.5
    endloop
  endfacet
  facet normal 0 -1 0
    outer loop
      vertex 51 79.5 3
      vertex 53 79.5 3
      vertex 51 79.5 15.5
    endloop
  endfacet
  facet normal 1 0 0
    outer loop
      vertex 51 79.5 3
      vertex 51 79.5 15.5
      vertex 51 77 15.5
    endloop
  endfacet
  facet normal 1 0 0
    outer loop
      vertex 51 77 3
      vertex 51 79.5 3
      vertex 51 77 15.5
    endloop
  endfacet
  facet normal -1 0 0
    outer loop
      vertex 49 79.5 15.5
      vertex 49 79.5 3
      vertex 49 77 15.5
    endloop
  endfacet
  facet normal -1 0 0
    outer loop
      vertex 49 77 15.5
      vertex 49 79.5 3
      vertex 49 77 3
    endloop
  endfacet
  facet normal 0 -1 0
    outer loop
      vertex 49 79.5 3
      vertex 49 79.5 15.5
      vertex 47 79.5 15.5
    endloop
  endfacet
  facet normal 0 -1 0
    outer loop
      vertex 47 79.5 3
      vertex 49 79.5 3
      vertex 47 79.5 15.5
    endloop
  endfacet
  facet normal 1 0 0
    outer loop
      vertex 47 79.5 3
      vertex 47 79.5 15.5
      vertex 47 77 15.5
    endloop
  endfacet
  facet normal 1 0 0
    outer loop
      vertex 47 77 3
      vertex 47 79.5 3
      vertex 47 77 15.5
    endloop
  endfacet
  facet normal -1 0 0
    outer loop
      vertex 45 79.5 15.5
      vertex 45 79.5 3
      vertex 45 77 15.5
    endloop
  endfacet
  facet normal -1 0 0
    outer loop
      vertex 45 77 15.5
      vertex 45 79.5 3
      vertex 45 77 3
    endloop
  endfacet
  facet normal 0 -1 0
    outer loop
      vertex 45 79.5 3
      vertex 45 79.5 15.5
      vertex 43 79.5 15.5
    endloop
  endfacet
  facet normal 0 -1 0
    outer loop
      vertex 43 79.5 3
      vertex 45 79.5 3
      vertex 43 79.5 15.5
    endloop
  endfacet
  facet normal 1 0 0
    outer loop
      vertex 43 79.5 3
      vertex 43 79.5 15.5
      vertex 43 77 15.5
    endloop
  endfacet
  facet normal 1 0 0
    outer loop
      vertex 43 77 3
      vertex 43 79.5 3
      vertex 43 77 15.5
    endloop
  endfacet
  facet normal -1 0 0
    outer loop
      vertex 41 79.5 15.5
      vertex 41 79.5 3
      vertex 41 77 15.5
    endloop
  endfacet
  facet normal -1 0 0
    outer loop
      vertex 41 77 15.5
      vertex 41 79.5 3
      vertex 41 77 3
    endloop
  endfacet
  facet normal 0 -1 0
    outer loop
      vertex 41 79.5 3
      vertex 41 79.5 15.5
      vertex 39 79.5 15.5
    endloop
  endfacet
  facet normal 0 -1 0
    outer loop
      vertex 39 79.5 3
      vertex 41 79.5 3
      vertex 39 79.5 15.5
    endloop
  endfacet
  facet normal 1 0 0
    outer loop
      vertex 39 79.5 3
      vertex 39 79.5 15.5
      vertex 39 77 15.5
    endloop
  endfacet
  facet normal 1 0 0
    outer loop
      vertex 39 77 3
      vertex 39 79.5 3
      vertex 39 77 15.5
    endloop
  endfacet
  facet normal -1 0 0
    outer loop
      vertex 37 79.5 15.5
      vertex 37 79.5 3
      vertex 37 77 15.5
    endloop
  endfacet
  facet normal -1 0 0
    outer loop
      vertex 37 77 15.5
      vertex 37 79.5 3
      vertex 37 77 3
    endloop
  endfacet
  facet normal 0 -1 0
    outer loop
      vertex 37 79.5 3
      vertex 37 79.5 15.5
      vertex 35 79.5 15.5
    endloop
  endfacet
  facet normal 0 -1 0
    outer loop
      vertex 35 79.5 3
      vertex 37 79.5 3
      vertex 35 79.5 15.5
    endloop
  endfacet
  facet normal 1 0 0
    outer loop
      vertex 35 79.5 3
      vertex 35 79.5 15.5
      vertex 35 77 15.5
    endloop
  endfacet
  facet normal 1 0 0
    outer loop
      vertex 35 77 3
      vertex 35 79.5 3
      vertex 35 77 15.5
    endloop
  endfacet
  facet normal -1 0 0
    outer loop
      vertex 33 79.5 15.5
      vertex 33 79.5 3
      vertex 33 77 15.5
    endloop
  endfacet
  facet normal -1 0 0
    outer loop
      vertex 33 77 15.5
      vertex 33 79.5 3
      vertex 33 77 3
    endloop
  endfacet
  facet normal 0 -1 0
    outer loop
      vertex 33 79.5 3
      vertex 33 79.5 15.5
      vertex 31 79.5 15.5
    endloop
  endfacet
  facet normal 0 -1 0
    outer loop
      vertex 31 79.5 3
      vertex 33 79.5 3
      vertex 31 79.5 15.5
    endloop
  endfacet
  facet normal 1 0 0
    outer loop
      vertex 31 79.5 3
      vertex 31 79.5 15.5
      vertex 31 77 15.5
    endloop
  endfacet
  facet normal 1 0 0
    outer loop
      vertex 31 77 3
      vertex 31 79.5 3
      vertex 31 77 15.5
    endloop
  endfacet
  facet normal -1 0 0
    outer loop
      vertex 29 79.5 15.5
      vertex 29 79.5 3
      vertex 29 77 15.5
    endloop
  endfacet
  facet normal -1 0 0
    outer loop
      vertex 29 77 15.5
      vertex 29 79.5 3
      vertex 29 77 3
    endloop
  endfacet
  facet normal 0 -1 0
    outer loop
      vertex 29 79.5 3
      vertex 29 79.5 15.5
      vertex 27 79.5 15.5
    endloop
  endfacet
  facet normal 0 -1 0
    outer loop
      vertex 27 79.5 3
      vertex 29 79.5 3
      vertex 27 79.5 15.5
    endloop
  endfacet
  facet normal 1 0 0
    outer loop
      vertex 27 79.5 3
      vertex 27 79.5 15.5
      vertex 27 77 15.5
    endloop
  endfacet
  facet normal 1 0 0
    outer loop
      vertex 27 77 3
      vertex 27 79.5 3
      vertex 27 77 15.5
    endloop
  endfacet
  facet normal -1 0 0
    outer loop
      vertex 25 79.5 15.5
      vertex 25 79.5 3
      vertex 25 77 15.5
    endloop
  endfacet
  facet normal -1 0 0
    outer loop
      vertex 25 77 15.5
      vertex 25 79.5 3
      vertex 25 77 3
    endloop
  endfacet
  facet normal 0 -1 0
    outer loop
      vertex 25 79.5 3
      vertex 25 79.5 15.5
      vertex 23 79.5 15.5
    endloop
  endfacet
  facet normal 0 -1 0
    outer loop
      vertex 23 79.5 3
      vertex 25 79.5 3
      vertex 23 79.5 15.5
    endloop
  endfacet
  facet normal 1 0 0
    outer loop
      vertex 23 79.5 3
      vertex 23 79.5 15.5
      vertex 23 77 15.5
    endloop
  endfacet
  facet normal 1 0 0
    outer loop
      vertex 23 77 3
      vertex 23 79.5 3
      vertex 23 77 15.5
    endloop
  endfacet
  facet normal -1 0 0
    outer loop
      vertex 21 79.5 15.5
      vertex 21 79.5 3
      vertex 21 77 15.5
    endloop
  endfacet
  facet normal -1 0 0
    outer loop
      vertex 21 77 15.5
      vertex 21 79.5 3
      vertex 21 77 3
    endloop
  endfacet
  facet normal 0 -1 0
    outer loop
      vertex 21 79.5 3
      vertex 21 79.5 15.5
      vertex 19 79.5 15.5
    endloop
  endfacet
  facet normal 0 -1 0
    outer loop
      vertex 19 79.5 3
      vertex 21 79.5 3
      vertex 19 79.5 15.5
    endloop
  endfacet
  facet normal 1 0 0
    outer loop
      vertex 19 79.5 3
      vertex 19 79.5 15.5
      vertex 19 77 15.5
    endloop
  endfacet
  facet normal 1 0 0
    outer loop
      vertex 19 77 3
      vertex 19 79.5 3
      vertex 19 77 15.5
    endloop
  endfacet
  facet normal -1 0 0
    outer loop
      vertex 17 79.5 15.5
      vertex 17 79.5 3
      vertex 17 77 15.5
    endloop
  endfacet
  facet normal -1 0 0
    outer loop
      vertex 17 77 15.5
      vertex 17 79.5 3
      vertex 17 77 3
    endloop
  endfacet
  facet normal 0 -1 0
    outer loop
      vertex 17 79.5 3
      vertex 17 79.5 15.5
      vertex 15 79.5 15.5
    endloop
  endfacet
  facet normal 0 -1 0
    outer loop
      vertex 15 79.5 3
      vertex 17 79.5 3
      vertex 15 79.5 15.5
    endloop
  endfacet
  facet normal 1 0 0
    outer loop
      vertex 15 79.5 3
      vertex 15 79.5 15.5
      vertex 15 77 15.5
    endloop
  endfacet
  facet normal 1 0 0
    outer loop
      vertex 15 77 3
      vertex 15 79.5 3
      vertex 15 77 15.5
    endloop
  endfacet
  facet normal -1 0 0
    outer loop
      vertex 13 79.5 15.5
      vertex 13 79.5 3
      vertex 13 77 15.5
    endloop
  endfacet
  facet normal -1 0 0
    outer loop
      vertex 13 77 15.5
      vertex 13 79.5 3
      vertex 13 77 3
    endloop
  endfacet
  facet normal 0 -1 0
    outer loop
      vertex 13 79.5 3
      vertex 13 79.5 15.5
      vertex 11 79.5 15.5
    endloop
  endfacet
  facet normal 0 -1 0
    outer loop
      vertex 11 79.5 3
      vertex 13 79.5 3
      vertex 11 79.5 15.5
    endloop
  endfacet
  facet normal 1 0 0
    outer loop
      vertex 11 79.5 3
      vertex 11 79.5 15.5
      vertex 11 77 15.5
    endloop
  endfacet
  facet normal 1 0 0
    outer loop
      vertex 11 77 3
      vertex 11 79.5 3
      vertex 11 77 15.5
    endloop
  endfacet
  facet normal -1 0 0
    outer loop
      vertex 9 79.5 15.5
      vertex 9 79.5 3
      vertex 9 77 15.5
    endloop
  endfacet
  facet normal -1 0 0
    outer loop
      vertex 9 77 15.5
      vertex 9 79.5 3
      vertex 9 77 3
    endloop
  endfacet
  facet normal 0 -1 0
    outer loop
      vertex 9 79.5 3
      vertex 9 79.5 15.5
      vertex 7 79.5 15.5
    endloop
  endfacet
  facet normal 0 -1 0
    outer loop
      vertex 7 79.5 3
      vertex 9 79.5 3
      vertex 7 79.5 15.5
    endloop
  endfacet
  facet normal 1 0 0
    outer loop
      vertex 7 79.5 3
      vertex 7 79.5 15.5
      vertex 7 77 15.5
    endloop
  endfacet
  facet normal 1 0 0
    outer loop
      vertex 7 77 3
      vertex 7 79.5 3
      vertex 7 77 15.5
    endloop
  endfacet
  facet normal -1 0 0
    outer loop
      vertex 5 79.5 15.5
      vertex 5 79.5 3
      vertex 5 77 15.5
    endloop
  endfacet
  facet normal -1 0 0
    outer loop
      vertex 5 77 15.5
      vertex 5 79.5 3
      vertex 5 77 3
    endloop
  endfacet
  facet normal 0 -1 0
    outer loop
      vertex 5 79.5 3
      vertex 5 79.5 15.5
      vertex 3 79.5 15.5
    endloop
  endfacet
  facet normal 0 -1 0
    outer loop
      vertex 3 79.5 3
      vertex 5 79.5 3
      vertex 3 79.5 15.5
    endloop
  endfacet
  facet normal 0 1 0
    outer loop
      vertex 5 2.5 15.5
      vertex 5 2.5 3
      vertex 3 2.5 15.5
    endloop
  endfacet
  facet normal 0 1 0
    outer loop
      vertex 3 2.5 15.5
      vertex 5 2.5 3
      vertex 3 2.5 3
    endloop
  endfacet
  facet normal -1 0 0
    outer loop
      vertex 5 5 15.5
      vertex 5 5 3
      vertex 5 2.5 15.5
    endloop
  endfacet
  facet normal -1 0 0
    outer loop
      vertex 5 2.5 15.5
      vertex 5 5 3
      vertex 5 2.5 3
    endloop
  endfacet
  facet normal 1 0 0
    outer loop
      vertex 7 5 3
      vertex 7 5 15.5
      vertex 7 2.5 15.5
    endloop
  endfacet
  facet normal 1 0 0
    outer loop
      vertex 7 2.5 3
      vertex 7 5 3
      vertex 7 2.5 15.5
    endloop
  endfacet
  facet normal 0 1 0
    outer loop
      vertex 9 2.5 15.5
      vertex 9 2.5 3
      vertex 7 2.5 15.5
    endloop
  endfacet
  facet normal 0 1 0
    outer loop
      vertex 7 2.5 15.5
      vertex 9 2.5 3
      vertex 7 2.5 3
    endloop
  endfacet
  facet normal -1 0 0
    outer loop
      vertex 9 5 15.5
      vertex 9 5 3
      vertex 9 2.5 15.5
    endloop
  endfacet
  facet normal -1 0 0
    outer loop
      vertex 9 2.5 15.5
      vertex 9 5 3
      vertex 9 2.5 3
    endloop
  endfacet
  facet normal 1 0 0
    outer loop
      vertex 11 5 3
      vertex 11 5 15.5
      vertex 11 2.5 15.5
    endloop
  endfacet
  facet normal 1 0 0
    outer loop
      vertex 11 2.5 3
      vertex 11 5 3
      vertex 11 2.5 15.5
    endloop
  endfacet
  facet normal 0 1 0
    outer loop
      vertex 13 2.5 15.5
      vertex 13 2.5 3
      vertex 11 2.5 15.5
    endloop
  endfacet
  facet normal 0 1 0
    outer loop
      vertex 11 2.5 15.5
      vertex 13 2.5 3
      vertex 11 2.5 3
    endloop
  endfacet
  facet normal -1 0 0
    outer loop
      vertex 13 5 15.5
      vertex 13 5 3
      vertex 13 2.5 15.5
    endloop
  endfacet
  facet normal -1 0 0
    outer loop
      vertex 13 2.5 15.5
      vertex 13 5 3
      vertex 13 2.5 3
    endloop
  endfacet
  facet normal 1 0 0
    outer loop
      vertex 15 5 3
      vertex 15 5 15.5
      vertex 15 2.5 15.5
    endloop
  endfacet
  facet normal 1 0 0
    outer loop
      vertex 15 2.5 3
      vertex 15 5 3
      vertex 15 2.5 15.5
    endloop
  endfacet
  facet normal 0 1 0
    outer loop
      vertex 17 2.5 15.5
      vertex 17 2.5 3
      vertex 15 2.5 15.5
    endloop
  endfacet
  facet normal 0 1 0
    outer loop
      vertex 15 2.5 15.5
      vertex 17 2.5 3
      vertex 15 2.5 3
    endloop
  endfacet
  facet normal -1 0 0
    outer loop
      vertex 17 5 15.5
      vertex 17 5 3
      vertex 17 2.5 15.5
    endloop
  endfacet
  facet normal -1 0 0
    outer loop
      vertex 17 2.5 15.5
      vertex 17 5 3
      vertex 17 2.5 3
    endloop
  endfacet
  facet normal 1 0 0
    outer loop
      vertex 19 5 3
      vertex 19 5 15.5
      vertex 19 2.5 15.5
    endloop
  endfacet
  facet normal 1 0 0
    outer loop
      vertex 19 2.5 3
      vertex 19 5 3
      vertex 19 2.5 15.5
    endloop
  endfacet
  facet normal 0 1 0
    outer loop
      vertex 21 2.5 15.5
      vertex 21 2.5 3
      vertex 19 2.5 15.5
    endloop
  endfacet
  facet normal 0 1 0
    outer loop
      vertex 19 2.5 15.5
      vertex 21 2.5 3
      vertex 19 2.5 3
    endloop
  endfacet
  facet normal -1 0 0
    outer loop
      vertex 21 5 15.5
      vertex 21 5 3
      vertex 21 2.5 15.5
    endloop
  endfacet
  facet normal -1 0 0
    outer loop
      vertex 21 2.5 15.5
      vertex 21 5 3
      vertex 21 2.5 3
    endloop
  endfacet
  facet normal 1 0 0
    outer loop
      vertex 23 5 3
      vertex 23 5 15.5
      vertex 23 2.5 15.5
    endloop
  endfacet
  facet normal 1 0 0
    outer loop
      vertex 23 2.5 3
      vertex 23 5 3
      vertex 23 2.5 15.5
    endloop
  endfacet
  facet normal 0 1 0
    outer loop
      vertex 25 2.5 15.5
      vertex 25 2.5 3
      vertex 23 2.5 15.5
    endloop
  endfacet
  facet normal 0 1 0
    outer loop
      vertex 23 2.5 15.5
      vertex 25 2.5 3
      vertex 23 2.5 3
    endloop
  endfacet
  facet normal -1 0 0
    outer loop
      vertex 25 5 15.5
      vertex 25 5 3
      vertex 25 2.5 15.5
    endloop
  endfacet
  facet normal -1 0 0
    outer loop
      vertex 25 2.5 15.5
      vertex 25 5 3
      vertex 25 2.5 3
    endloop
  endfacet
  facet normal 1 0 0
    outer loop
      vertex 27 5 3
      vertex 27 5 15.5
      vertex 27 2.5 15.5
    endloop
  endfacet
  facet normal 1 0 0
    outer loop
      vertex 27 2.5 3
      vertex 27 5 3
      vertex 27 2.5 15.5
    endloop
  endfacet
  facet normal 0 1 0
    outer loop
      vertex 29 2.5 15.5
      vertex 29 2.5 3
      vertex 27 2.5 15.5
    endloop
  endfacet
  facet normal 0 1 0
    outer loop
      vertex 27 2.5 15.5
      vertex 29 2.5 3
      vertex 27 2.5 3
    endloop
  endfacet
  facet normal -1 0 0
    outer loop
      vertex 29 5 15.5
      vertex 29 5 3
      vertex 29 2.5 15.5
    endloop
  endfacet
  facet normal -1 0 0
    outer loop
      vertex 29 2.5 15.5
      vertex 29 5 3
      vertex 29 2.5 3
    endloop
  endfacet
  facet normal 1 0 0
    outer loop
      vertex 31 5 3
      vertex 31 5 15.5
      vertex 31 2.5 15.5
    endloop
  endfacet
  facet normal 1 0 0
    outer loop
      vertex 31 2.5 3
      vertex 31 5 3
      vertex 31 2.5 15.5
    endloop
  endfacet
  facet normal 0 1 0
    outer loop
      vertex 33 2.5 15.5
      vertex 33 2.5 3
      vertex 31 2.5 15.5
    endloop
  endfacet
  facet normal 0 1 0
    outer loop
      vertex 31 2.5 15.5
      vertex 33 2.5 3
      vertex 31 2.5 3
    endloop
  endfacet
  facet normal -1 0 0
    outer loop
      vertex 33 5 15.5
      vertex 33 5 3
      vertex 33 2.5 15.5
    endloop
  endfacet
  facet normal -1 0 0
    outer loop
      vertex 33 2.5 15.5
      vertex 33 5 3
      vertex 33 2.5 3
    endloop
  endfacet
  facet normal 1 0 0
    outer loop
      vertex 35 5 3
      vertex 35 5 15.5
      vertex 35 2.5 15.5
    endloop
  endfacet
  facet normal 1 0 0
    outer loop
      vertex 35 2.5 3
      vertex 35 5 3
      vertex 35 2.5 15.5
    endloop
  endfacet
  facet normal 0 1 0
    outer loop
      vertex 37 2.5 15.5
      vertex 37 2.5 3
      vertex 35 2.5 15.5
    endloop
  endfacet
  facet normal 0 1 0
    outer loop
      vertex 35 2.5 15.5
      vertex 37 2.5 3
      vertex 35 2.5 3
    endloop
  endfacet
  facet normal -1 0 0
    outer loop
      vertex 37 5 15.5
      vertex 37 5 3
      vertex 37 2.5 15.5
    endloop
  endfacet
  facet normal -1 0 0
    outer loop
      vertex 37 2.5 15.5
      vertex 37 5 3
      vertex 37 2.5 3
    endloop
  endfacet
  facet normal 1 0 0
    outer loop
      vertex 39 5 3
      vertex 39 5 15.5
      vertex 39 2.5 15.5
    endloop
  endfacet
  facet normal 1 0 0
    outer loop
      vertex 39 2.5 3
      vertex 39 5 3
      vertex 39 2.5 15.5
    endloop
  endfacet
  facet normal 0 1 0
    outer loop
      vertex 41 2.5 15.5
      vertex 41 2.5 3
      vertex 39 2.5 15.5
    endloop
  endfacet
  facet normal 0 1 0
    outer loop
      vertex 39 2.5 15.5
      vertex 41 2.5 3
      vertex 39 2.5 3
    endloop
  endfacet
  facet normal -1 0 0
    outer loop
      vertex 41 5 15.5
      vertex 41 5 3
      vertex 41 2.5 15.5
    endloop
  endfacet
  facet normal -1 0 0
    outer loop
      vertex 41 2.5 15.5
      vertex 41 5 3
      vertex 41 2.5 3
    endloop
  endfacet
  facet normal 1 0 0
    outer loop
      vertex 43 5 3
      vertex 43 5 15.5
      vertex 43 2.5 15.5
    endloop
  endfacet
  facet normal 1 0 0
    outer loop
      vertex 43 2.5 3
      vertex 43 5 3
      vertex 43 2.5 15.5
    endloop
  endfacet
  facet normal 0 1 0
    outer loop
      vertex 45 2.5 15.5
      vertex 45 2.5 3
      vertex 43 2.5 15.5
    endloop
  endfacet
  facet normal 0 1 0
    outer loop
      vertex 43 2.5 15.5
      vertex 45 2.5 3
      vertex 43 2.5 3
    endloop
  endfacet
  facet normal -1 0 0
    outer loop
      vertex 45 5 15.5
      vertex 45 5 3
      vertex 45 2.5 15.5
    endloop
  endfacet
  facet normal -1 0 0
    outer loop
      vertex 45 2.5 15.5
      vertex 45 5 3
      vertex 45 2.5 3
    endloop
  endfacet
  facet normal 1 0 0
    outer loop
      vertex 47 5 3
      vertex 47 5 15.5
      vertex 47 2.5 15.5
    endloop
  endfacet
  facet normal 1 0 0
    outer loop
      vertex 47 2.5 3
      vertex 47 5 3
      vertex 47 2.5 15.5
    endloop
  endfacet
  facet normal 0 1 0
    outer loop
      vertex 49 2.5 15.5
      vertex 49 2.5 3
      vertex 47 2.5 15.5
    endloop
  endfacet
  facet normal 0 1 0
    outer loop
      vertex 47 2.5 15.5
      vertex 49 2.5 3
      vertex 47 2.5 3
    endloop
  endfacet
  facet normal -1 0 0
    outer loop
      vertex 49 5 15.5
      vertex 49 5 3
      vertex 49 2.5 15.5
    endloop
  endfacet
  facet normal -1 0 0
    outer loop
      vertex 49 2.5 15.5
      vertex 49 5 3
      vertex 49 2.5 3
    endloop
  endfacet
  facet normal 1 0 0
    outer loop
      vertex 51 5 3
      vertex 51 5 15.5
      vertex 51 2.5 15.5
    endloop
  endfacet
  facet normal 1 0 0
    outer loop
      vertex 51 2.5 3
      vertex 51 5 3
      vertex 51 2.5 15.5
    endloop
  endfacet
  facet normal 0 1 0
    outer loop
      vertex 53 2.5 15.5
      vertex 53 2.5 3
      vertex 51 2.5 15.5
    endloop
  endfacet
  facet normal 0 1 0
    outer loop
      vertex 51 2.5 15.5
      vertex 53 2.5 3
      vertex 51 2.5 3
    endloop
  endfacet
  facet normal -1 0 0
    outer loop
      vertex 53 5 15.5
      vertex 53 5 3
      vertex 53 2.5 15.5
    endloop
  endfacet
  facet normal -1 0 0
    outer loop
      vertex 53 2.5 15.5
      vertex 53 5 3
      vertex 53 2.5 3
    endloop
  endfacet
  facet normal 1 0 0
    outer loop
      vertex 55 5 3
      vertex 55 5 15.5
      vertex 55 2.5 15.5
    endloop
  endfacet
  facet normal 1 0 0
    outer loop
      vertex 55 2.5 3
      vertex 55 5 3
      vertex 55 2.5 15.5
    endloop
  endfacet
  facet normal 0 1 0
    outer loop
      vertex 57 2.5 15.5
      vertex 57 2.5 3
      vertex 55 2.5 15.5
    endloop
  endfacet
  facet normal 0 1 0
    outer loop
      vertex 55 2.5 15.5
      vertex 57 2.5 3
      vertex 55 2.5 3
    endloop
  endfacet
  facet normal -1 0 0
    outer loop
      vertex 57 5 15.5
      vertex 57 5 3
      vertex 57 2.5 15.5
    endloop
  endfacet
  facet normal -1 0 0
    outer loop
      vertex 57 2.5 15.5
      vertex 57 5 3
      vertex 57 2.5 3
    endloop
  endfacet
  facet normal 1 0 0
    outer loop
      vertex 59 5 3
      vertex 59 5 15.5
      vertex 59 2.5 15.5
    endloop
  endfacet
  facet normal 1 0 0
    outer loop
      vertex 59 2.5 3
      vertex 59 5 3
      vertex 59 2.5 15.5
    endloop
  endfacet
  facet normal 0 1 0
    outer loop
      vertex 61 2.5 15.5
      vertex 61 2.5 3
      vertex 59 2.5 15.5
    endloop
  endfacet
  facet normal 0 1 0
    outer loop
      vertex 59 2.5 15.5
      vertex 61 2.5 3
      vertex 59 2.5 3
    endloop
  endfacet
  facet normal -1 0 0
    outer loop
      vertex 61 5 15.5
      vertex 61 5 3
      vertex 61 2.5 15.5
    endloop
  endfacet
  facet normal -1 0 0
    outer loop
      vertex 61 2.5 15.5
      vertex 61 5 3
      vertex 61 2.5 3
    endloop
  endfacet
  facet normal 1 0 0
    outer loop
      vertex 63 5 3
      vertex 63 5 15.5
      vertex 63 2.5 15.5
    endloop
  endfacet
  facet normal 1 0 0
    outer loop
      vertex 63 2.5 3
      vertex 63 5 3
      vertex 63 2.5 15.5
    endloop
  endfacet
  facet normal 0 1 0
    outer loop
      vertex 65 2.5 15.5
      vertex 65 2.5 3
      vertex 63 2.5 15.5
    endloop
  endfacet
  facet normal 0 1 0
    outer loop
      vertex 63 2.5 15.5
      vertex 65 2.5 3
      vertex 63 2.5 3
    endloop
  endfacet
  facet normal 0 -1 0
    outer loop
      vertex 65 35.75 21.5
      vertex 65 35.75 15.5
      vertex 68 35.75 15.5
    endloop
  endfacet
  facet normal 0 -1 0
    outer loop
      vertex 68 35.75 21.5
      vertex 65 35.75 21.5
      vertex 68 35.75 15.5
    endloop
  endfacet
  facet normal 0 0 1
    outer loop
      vertex 65 45.75 21.5
      vertex 65 35.75 21.5
      vertex 68 35.75 21.5
    endloop
  endfacet
  facet normal 0 0 1
    outer loop
      vertex 68 45.75 21.5
      vertex 65 45.75 21.5
      vertex 68 35.75 21.5
    endloop
  endfacet
  facet normal 0 1 0
    outer loop
      vertex 68 37.75 19.5
      vertex 68 37.75 15.5
      vertex 65 37.75 19.5
    endloop
  endfacet
  facet normal 0 1 0
    outer loop
      vertex 65 37.75 19.5
      vertex 68 37.75 15.5
      vertex 65 37.75 15.5
    endloop
  endfacet
  facet normal 0 0 1
    outer loop
      vertex 68 37.75 15.5
      vertex 68 43.75 15.5
      vertex 65 43.75 15.5
    endloop
  endfacet
  facet normal 0 0 1
    outer loop
      vertex 65 37.75 15.5
      vertex 68 37.75 15.5
      vertex 65 43.75 15.5
    endloop
  endfacet
  facet normal 0 -1 0
    outer loop
      vertex 68 43.75 15.5
      vertex 68 43.75 19.5
      vertex 65 43.75 19.5
    endloop
  endfacet
  facet normal 0 -1 0
    outer loop
      vertex 65 43.75 15.5
      vertex 68 43.75 15.5
      vertex 65 43.75 19.5
    endloop
  endfacet
  facet normal 0 0 -1
    outer loop
      vertex 68 43.75 19.5
      vertex 68 37.75 19.5
      vertex 65 43.75 19.5
    endloop
  endfacet
  facet normal 0 0 -1
    outer loop
      vertex 65 43.75 19.5
      vertex 68 37.75 19.5
      vertex 65 37.75 19.5
    endloop
  endfacet
  facet normal 0 0 1
    outer loop
      vertex 5 2.5 3
      vertex 5 5 3
      vertex 3 5 3
    endloop
  endfacet
  facet normal 0 0 1
    outer loop
      vertex 3 2.5 3
      vertex 5 2.5 3
      vertex 3 5 3
    endloop
  endfacet
  facet normal 0 0 1
    outer loop
      vertex 5 77 3
      vertex 5 79.5 3
      vertex 3 79.5 3
    endloop
  endfacet
  facet normal 0 0 1
    outer loop
      vertex 3 77 3
      vertex 5 77 3
      vertex 3 79.5 3
    endloop
  endfacet
  facet normal 0 0 1
    outer loop
      vertex 9 77 3
      vertex 9 79.5 3
      vertex 7 79.5 3
    endloop
  endfacet
  facet normal 0 0 1
    outer loop
      vertex 7 77 3
      vertex 9 77 3
      vertex 7 79.5 3
    endloop
  endfacet
  facet normal 0 0 1
    outer loop
      vertex 13 77 3
      vertex 13 79.5 3
      vertex 11 79.5 3
    endloop
  endfacet
  facet normal 0 0 1
    outer loop
      vertex 11 77 3
      vertex 13 77 3
      vertex 11 79.5 3
    endloop
  endfacet
  facet normal 0 0 1
    outer loop
      vertex 17 77 3
      vertex 17 79.5 3
      vertex 15 79.5 3
    endloop
  endfacet
  facet normal 0 0 1
    outer loop
      vertex 15 77 3
      vertex 17 77 3
      vertex 15 79.5 3
    endloop
  endfacet
  facet normal 0 0 1
    outer loop
      vertex 21 77 3
      vertex 21 79.5 3
      vertex 19 79.5 3
    endloop
  endfacet
  facet normal 0 0 1
    outer loop
      vertex 19 77 3
      vertex 21 77 3
      vertex 19 79.5 3
    endloop
  endfacet
  facet normal 0 0 1
    outer loop
      vertex 25 77 3
      vertex 25 79.5 3
      vertex 23 79.5 3
    endloop
  endfacet
  facet normal 0 0 1
    outer loop
      vertex 23 77 3
      vertex 25 77 3
      vertex 23 79.5 3
    endloop
  endfacet
  facet normal 0 0 1
    outer loop
      vertex 29 77 3
      vertex 29 79.5 3
      vertex 27 79.5 3
    endloop
  endfacet
  facet normal 0 0 1
    outer loop
      vertex 27 77 3
      vertex 29 77 3
      vertex 27 79.5 3
    endloop
  endfacet
  facet normal 0 0 1
    outer loop
      vertex 33 77 3
      vertex 33 79.5 3
      vertex 31 79.5 3
    endloop
  endfacet
  facet normal 0 0 1
    outer loop
      vertex 31 77 3
      vertex 33 77 3
      vertex 31 79.5 3
    endloop
  endfacet
  facet normal 0 0 1
    outer loop
      vertex 37 77 3
      vertex 37 79.5 3
      vertex 35 79.5 3
    endloop
  endfacet
  facet normal 0 0 1
    outer loop
      vertex 35 77 3
      vertex 37 77 3
      vertex 35 79.5 3
    endloop
  endfacet
  facet normal 0 0 1
    outer loop
      vertex 41 77 3
      vertex 41 79.5 3
      vertex 39 79.5 3
    endloop
  endfacet
  facet normal 0 0 1
    outer loop
      vertex 39 77 3
      vertex 41 77 3
      vertex 39 79.5 3
    endloop
  endfacet
  facet normal 0 0 1
    outer loop
      vertex 45 77 3
      vertex 45 79.5 3
      vertex 43 79.5 3
    endloop
  endfacet
  facet normal 0 0 1
    outer loop
      vertex 43 77 3
      vertex 45 77 3
      vertex 43 79.5 3
    endloop
  endfacet
  facet normal 0 0 1
    outer loop
      vertex 49 77 3
      vertex 49 79.5 3
      vertex 47 79.5 3
    endloop
  endfacet
  facet normal 0 0 1
    outer loop
      vertex 47 77 3
      vertex 49 77 3
      vertex 47 79.5 3
    endloop
  endfacet
  facet normal 0 0 1
    outer loop
      vertex 53 77 3
      vertex 53 79.5 3
      vertex 51 79.5 3
    endloop
  endfacet
  facet normal 0 0 1
    outer loop
      vertex 51 77 3
      vertex 53 77 3
      vertex 51 79.5 3
    endloop
  endfacet
  facet normal 0 0 1
    outer loop
      vertex 57 77 3
      vertex 57 79.5 3
      vertex 55 79.5 3
    endloop
  endfacet
  facet normal 0 0 1
    outer loop
      vertex 55 77 3
      vertex 57 77 3
      vertex 55 79.5 3
    endloop
  endfacet
  facet normal 0 0 1
    outer loop
      vertex 61 77 3
      vertex 61 79.5 3
      vertex 59 79.5 3
    endloop
  endfacet
  facet normal 0 0 1
    outer loop
      vertex 59 77 3
      vertex 61 77 3
      vertex 59 79.5 3
    endloop
  endfacet
  facet normal 0 0 1
    outer loop
      vertex 65 77 3
      vertex 65 79.5 3
      vertex 63 79.5 3
    endloop
  endfacet
  facet normal 0 0 1
    outer loop
      vertex 63 77 3
      vertex 65 77 3
      vertex 63 79.5 3
    endloop
  endfacet
  facet normal 0 0 1
    outer loop
      vertex 65 2.5 3
      vertex 65 5 3
      vertex 63 5 3
    endloop
  endfacet
  facet normal 0 0 1
    outer loop
      vertex 63 2.5 3
      vertex 65 2.5 3
      vertex 63 5 3
    endloop
  endfacet
  facet normal 0 0 1
    outer loop
      vertex 61 2.5 3
      vertex 61 5 3
      vertex 59 5 3
    endloop
  endfacet
  facet normal 0 0 1
    outer loop
      vertex 59 2.5 3
      vertex 61 2.5 3
      vertex 59 5 3
    endloop
  endfacet
  facet normal 0 0 1
    outer loop
      vertex 57 2.5 3
      vertex 57 5 3
      vertex 55 5 3
    endloop
  endfacet
  facet normal 0 0 1
    outer loop
      vertex 55 2.5 3
      vertex 57 2.5 3
      vertex 55 5 3
    endloop
  endfacet
  facet normal 0 0 1
    outer loop
      vertex 53 2.5 3
      vertex 53 5 3
      vertex 51 5 3
    endloop
  endfacet
  facet normal 0 0 1
    outer loop
      vertex 51 2.5 3
      vertex 53 2.5 3
      vertex 51 5 3
    endloop
  endfacet
  facet normal 0 0 1
    outer loop
      vertex 49 2.5 3
      vertex 49 5 3
      vertex 47 5 3
    endloop
  endfacet
  facet normal 0 0 1
    outer loop
      vertex 47 2.5 3
      vertex 49 2.5 3
      vertex 47 5 3
    endloop
  endfacet
  facet normal 0 0 1
    outer loop
      vertex 45 2.5 3
      vertex 45 5 3
      vertex 43 5 3
    endloop
  endfacet
  facet normal 0 0 1
    outer loop
      vertex 43 2.5 3
      vertex 45 2.5 3
      vertex 43 5 3
    endloop
  endfacet
  facet normal 0 0 1
    outer loop
      vertex 41 2.5 3
      vertex 41 5 3
      vertex 39 5 3
    endloop
  endfacet
  facet normal 0 0 1
    outer loop
      vertex 39 2.5 3
      vertex 41 2.5 3
      vertex 39 5 3
    endloop
  endfacet
  facet normal 0 0 1
    outer loop
      vertex 37 2.5 3
      vertex 37 5 3
      vertex 35 5 3
    endloop
  endfacet
  facet normal 0 0 1
    outer loop
      vertex 35 2.5 3
      vertex 37 2.5 3
      vertex 35 5 3
    endloop
  endfacet
  facet normal 0 0 1
    outer loop
      vertex 33 2.5 3
      vertex 33 5 3
      vertex 31 5 3
    endloop
  endfacet
  facet normal 0 0 1
    outer loop
      vertex 31 2.5 3
      vertex 33 2.5 3
      vertex 31 5 3
    endloop
  endfacet
  facet normal 0 0 1
    outer loop
      vertex 29 2.5 3
      vertex 29 5 3
      vertex 27 5 3
    endloop
  endfacet
  facet normal 0 0 1
    outer loop
      vertex 27 2.5 3
      vertex 29 2.5 3
      vertex 27 5 3
    endloop
  endfacet
  facet normal 0 0 1
    outer loop
      vertex 25 2.5 3
      vertex 25 5 3
      vertex 23 5 3
    endloop
  endfacet
  facet normal 0 0 1
    outer loop
      vertex 23 2.5 3
      vertex 25 2.5 3
      vertex 23 5 3
    endloop
  endfacet
  facet normal 0 0 1
    outer loop
      vertex 21 2.5 3
      vertex 21 5 3
      vertex 19 5 3
    endloop
  endfacet
  facet normal 0 0 1
    outer loop
      vertex 19 2.5 3
      vertex 21 2.5 3
      vertex 19 5 3
    endloop
  endfacet
  facet normal 0 0 1
    outer loop
      vertex 17 2.5 3
      vertex 17 5 3
      vertex 15 5 3
    endloop
  endfacet
  facet normal 0 0 1
    outer loop
      vertex 15 2.5 3
      vertex 17 2.5 3
      vertex 15 5 3
    endloop
  endfacet
  facet normal 0 0 1
    outer loop
      vertex 13 2.5 3
      vertex 13 5 3
      vertex 11 5 3
    endloop
  endfacet
  facet normal 0 0 1
    outer loop
      vertex 11 2.5 3
      vertex 13 2.5 3
      vertex 11 5 3
    endloop
  endfacet
  facet normal 0 0 1
    outer loop
      vertex 9 2.5 3
      vertex 9 5 3
      vertex 7 5 3
    endloop
  endfacet
  facet normal 0 0 1
    outer loop
      vertex 7 2.5 3
      vertex 9 2.5 3
      vertex 7 5 3
    endloop
  endfacet
endsolid OpenSCAD_Model
